<svg width="79" height="564" viewBox="0 0 79 564" fill="none" xmlns="http://www.w3.org/2000/svg">
<g filter="url(#filter0_bd_213_172)">
<path d="M74 527.7L49.9 536.1L74 544.2V555.5L37.5 541.1L4.8 553.8V542.6L24.8 535.9L4.8 529.2L4.8 518L37.5 531L74 516.5V527.7ZM4.8 501.168V492.168L74 477.768V488.468L58.5 491.168V502.168L74 504.868V515.568L4.8 501.168ZM48.9 492.768L26.3 496.668L48.9 500.568V492.768ZM4.8 471.48L4.8 457.38C4.8 454.18 5.53333 451.38 7 448.98C8.4 446.513 10.3333 444.613 12.8 443.28C15.2667 441.946 18 441.28 21 441.28H32.9C35.9 441.28 38.6333 441.946 41.1 443.28C43.5667 444.613 45.5333 446.513 47 448.98C48.4 451.38 49.1 454.18 49.1 457.38V461.28H74V471.48H4.8ZM39.5 457.68C39.5 455.68 38.9 454.146 37.7 453.08C36.4333 452.013 34.7333 451.48 32.6 451.48H21.3C19.1667 451.48 17.5 452.013 16.3 453.08C15.0333 454.146 14.4 455.68 14.4 457.68V461.28H39.5V457.68ZM4.8 425.875V416.875L74 402.475V413.175L58.5 415.875V426.875L74 429.575L74 440.275L4.8 425.875ZM48.9 417.475L26.3 421.375L48.9 425.275V417.475ZM41.9 383.487V385.987H74V396.187H4.8V385.987H32.3V383.387L4.8 375.487V364.587L37 374.987L74 362.487V373.787L41.9 383.487ZM4.8 361.145L4.8 327.945H14.4V339.445H74V349.645H14.4V361.145H4.8ZM4.8 320.405L4.8 292.205H14.4V310.205H33.1V296.205H42.7V310.205H64.4V291.705H74V320.405H4.8ZM4.8 281.734V267.634C4.8 264.434 5.53333 261.634 7 259.234C8.4 256.767 10.3333 254.867 12.8 253.534C15.2667 252.2 18 251.534 21 251.534H32.9C35.9 251.534 38.6333 252.2 41.1 253.534C43.5667 254.867 45.5333 256.767 47 259.234C48.4 261.634 49.1 264.434 49.1 267.634V271.534H74V281.734H4.8ZM39.5 267.934C39.5 265.934 38.9 264.4 37.7 263.334C36.4333 262.267 34.7333 261.734 32.6 261.734H21.3C19.1667 261.734 17.5 262.267 16.3 263.334C15.0333 264.4 14.4 265.934 14.4 267.934V271.534H39.5V267.934ZM4.8 207.895H74V218.095H33.7L74 232.595V241.695H4.8L4.8 231.495H45.3L4.8 216.995V207.895ZM23.1 174.903C20.1 174.903 17.7667 175.436 16.1 176.503C14.4333 177.503 13.6 178.936 13.6 180.803C13.6 182.736 14.4333 184.27 16.1 185.403C17.7667 186.47 20.1 187.003 23.1 187.003H55.7C58.7 187.003 61.0333 186.47 62.7 185.403C64.3667 184.27 65.2 182.736 65.2 180.803C65.2 178.87 64.3667 177.37 62.7 176.303C61.0333 175.17 58.7 174.603 55.7 174.603H50.9V164.403H56C61.5333 164.403 66.0667 165.936 69.6 169.003C73.0667 172.003 74.8 175.936 74.8 180.803C74.8 185.67 73.0667 189.636 69.6 192.703C66.0667 195.703 61.5333 197.203 56 197.203H22.8C17.2667 197.203 12.7667 195.703 9.3 192.703C5.76666 189.636 4 185.67 4 180.803C4 176.003 5.76666 172.136 9.3 169.203C12.7667 166.203 17.2667 164.703 22.8 164.703H26.9V174.903H23.1ZM4.8 161.048V127.848H14.4V139.348H74V149.548H14.4L14.4 161.048H4.8ZM4.8 86.5078H74V96.7078H33.7L74 111.208V120.308H4.8V110.108H45.3L4.8 95.6078V86.5078ZM41.9 61.4164V63.9164H74V74.1164H4.8V63.9164H32.3V61.3164L4.8 53.4164V42.5164L37 52.9164L74 40.4164V51.7164L41.9 61.4164ZM4.8 0.374999H74V10.575H33.7L74 25.075V34.175H4.8V23.975H45.3L4.8 9.475L4.8 0.374999Z" fill="#464646" fill-opacity="0.1" shape-rendering="crispEdges"/>
</g>
<defs>
<filter id="filter0_bd_213_172" x="-46" y="-49.625" width="170.801" height="655.125" filterUnits="userSpaceOnUse" color-interpolation-filters="sRGB">
<feFlood flood-opacity="0" result="BackgroundImageFix"/>
<feGaussianBlur in="BackgroundImageFix" stdDeviation="25"/>
<feComposite in2="SourceAlpha" operator="in" result="effect1_backgroundBlur_213_172"/>
<feColorMatrix in="SourceAlpha" type="matrix" values="0 0 0 0 0 0 0 0 0 0 0 0 0 0 0 0 0 0 127 0" result="hardAlpha"/>
<feOffset dy="4"/>
<feGaussianBlur stdDeviation="2"/>
<feComposite in2="hardAlpha" operator="out"/>
<feColorMatrix type="matrix" values="0 0 0 0 0 0 0 0 0 0 0 0 0 0 0 0 0 0 0.25 0"/>
<feBlend mode="normal" in2="effect1_backgroundBlur_213_172" result="effect2_dropShadow_213_172"/>
<feBlend mode="normal" in="SourceGraphic" in2="effect2_dropShadow_213_172" result="shape"/>
</filter>
</defs>
</svg>
