<svg width="34" height="34" viewBox="0 0 34 34" fill="none" xmlns="http://www.w3.org/2000/svg">
<path d="M17 0C7.60526 0 0 7.60526 0 17C0 26.3947 7.60526 34 17 34C26.3947 34 34 26.3947 34 17C34 7.60526 26.3947 0 17 0ZM17 32.2105C8.58947 32.2105 1.78947 25.4105 1.78947 17C1.78947 8.58947 8.58947 1.78947 17 1.78947C25.4105 1.78947 32.2105 8.58947 32.2105 17C32.2105 25.4105 25.4105 32.2105 17 32.2105ZM25.7237 17C25.7237 17.4921 25.3211 17.8947 24.8289 17.8947H14.8079C14.3158 17.8947 13.9132 17.4921 13.9132 17C13.9132 16.5079 14.3158 16.1053 14.8079 16.1053H24.8289C25.3211 16.1053 25.7237 16.5079 25.7237 17ZM25.7237 22.3684C25.7237 22.8605 25.3211 23.2632 24.8289 23.2632H14.8079C14.3158 23.2632 13.9132 22.8605 13.9132 22.3684C13.9132 21.8763 14.3158 21.4737 14.8079 21.4737H24.8289C25.3211 21.4737 25.7237 21.8763 25.7237 22.3684ZM11.7658 17C11.7658 17.4921 11.3632 17.8947 10.8711 17.8947H9.17105C8.67895 17.8947 8.27632 17.4921 8.27632 17C8.27632 16.5079 8.67895 16.1053 9.17105 16.1053H10.8711C11.3632 16.1053 11.7658 16.5079 11.7658 17ZM11.7658 22.3684C11.7658 22.8605 11.3632 23.2632 10.8711 23.2632H9.17105C8.67895 23.2632 8.27632 22.8605 8.27632 22.3684C8.27632 21.8763 8.67895 21.4737 9.17105 21.4737H10.8711C11.3632 21.4737 11.7658 21.8763 11.7658 22.3684ZM25.7237 11.6316C25.7237 12.1237 25.3211 12.5263 24.8289 12.5263H14.8079C14.3158 12.5263 13.9132 12.1237 13.9132 11.6316C13.9132 11.1395 14.3158 10.7368 14.8079 10.7368H24.8289C25.3211 10.7368 25.7237 11.1395 25.7237 11.6316ZM11.7658 11.6316C11.7658 12.1237 11.3632 12.5263 10.8711 12.5263H9.17105C8.67895 12.5263 8.27632 12.1237 8.27632 11.6316C8.27632 11.1395 8.67895 10.7368 9.17105 10.7368H10.8711C11.3632 10.7368 11.7658 11.1395 11.7658 11.6316Z" fill="white"/>
</svg>
