<svg width="88" height="662" viewBox="0 0 88 662" fill="none" xmlns="http://www.w3.org/2000/svg">
<g filter="url(#filter0_bd_192_401)">
<path d="M46.1 12.9V10.4L14 10.4V0.2L83.2 0.2V10.4L55.7 10.4V13L83.2 20.9V31.8L51 21.4L14 33.9V22.6L46.1 12.9ZM83.2 48.4414V57.4414L14 71.8414V61.1414L29.5 58.4414V47.4414L14 44.7414V34.0414L83.2 48.4414ZM39.1 56.8414L61.7 52.9414L39.1 49.0414V56.8414ZM83.2 70.2023V103.402H73.6V91.9023H14V81.7023H73.6V70.2023H83.2ZM83.2 116.215V125.215L14 139.615V128.915L29.5 126.215V115.215L14 112.515L14 101.815L83.2 116.215ZM39.1 124.615L61.7 120.715L39.1 116.815V124.615ZM14 177.303V167.103H73.6V159.603C65.2 159.203 56.8667 158.67 48.6 158.003C40.3333 157.336 34 156.703 29.6 156.103C24.3333 155.303 20.4 153.536 17.8 150.803C15.2667 148.07 14 144.603 14 140.403H23.6C23.6 143.803 26.2 145.903 31.4 146.703C37.2667 147.57 45.2667 148.37 55.4 149.103C65.5333 149.836 74.8 150.236 83.2 150.303V177.303H14ZM65.2 188.051C68.8 188.051 72.0333 188.751 74.9 190.151C77.7667 191.617 80 193.651 81.6 196.251C83.2 198.851 84 201.817 84 205.151C84 208.484 83.2 211.451 81.6 214.051C80 216.651 77.7667 218.651 74.9 220.051C72.0333 221.517 68.8 222.251 65.2 222.251H32C28.4 222.251 25.1667 221.517 22.3 220.051C19.4333 218.651 17.2 216.651 15.6 214.051C14 211.451 13.2 208.484 13.2 205.151C13.2 201.817 14 198.851 15.6 196.251C17.2 193.651 19.4333 191.617 22.3 190.151C25.1667 188.751 28.4 188.051 32 188.051H65.2ZM32.3 198.251C29.3667 198.251 27.0333 198.851 25.3 200.051C23.6333 201.317 22.8 203.017 22.8 205.151C22.8 207.284 23.6333 208.951 25.3 210.151C27.0333 211.417 29.3667 212.051 32.3 212.051H64.9C67.8333 212.051 70.1333 211.417 71.8 210.151C73.5333 208.951 74.4 207.284 74.4 205.151C74.4 203.017 73.5333 201.317 71.8 200.051C70.1333 198.851 67.8333 198.251 64.9 198.251H32.3ZM83.2 232.915V259.715H73.6V243.115H14V232.915H83.2ZM14 312.859V302.659H73.6V291.259H14V281.059H83.2V312.859H14ZM83.2 325.298V339.398C83.2 342.598 82.4667 345.398 81 347.798C79.6 350.264 77.6667 352.164 75.2 353.498C72.7333 354.831 70 355.498 67 355.498H55.1C52.1 355.498 49.3667 354.831 46.9 353.498C44.4333 352.164 42.4667 350.264 41 347.798C39.6 345.398 38.9 342.598 38.9 339.398V335.498H14V325.298H83.2ZM48.5 339.098C48.5 341.098 49.1 342.631 50.3 343.698C51.5667 344.764 53.2667 345.298 55.4 345.298H66.7C68.8333 345.298 70.5 344.764 71.7 343.698C72.9667 342.631 73.6 341.098 73.6 339.098V335.498H48.5V339.098ZM65.2 363.637C68.8 363.637 72.0333 364.337 74.9 365.737C77.7667 367.203 80 369.237 81.6 371.837C83.2 374.437 84 377.403 84 380.737C84 384.07 83.2 387.037 81.6 389.637C80 392.237 77.7667 394.237 74.9 395.637C72.0333 397.103 68.8 397.837 65.2 397.837H32C28.4 397.837 25.1667 397.103 22.3 395.637C19.4333 394.237 17.2 392.237 15.6 389.637C14 387.037 13.2 384.07 13.2 380.737C13.2 377.403 14 374.437 15.6 371.837C17.2 369.237 19.4333 367.203 22.3 365.737C25.1667 364.337 28.4 363.637 32 363.637H65.2ZM32.3 373.837C29.3667 373.837 27.0333 374.437 25.3 375.637C23.6333 376.903 22.8 378.603 22.8 380.737C22.8 382.87 23.6333 384.537 25.3 385.737C27.0333 387.003 29.3667 387.637 32.3 387.637H64.9C67.8333 387.637 70.1333 387.003 71.8 385.737C73.5333 384.537 74.4 382.87 74.4 380.737C74.4 378.603 73.5333 376.903 71.8 375.637C70.1333 374.437 67.8333 373.837 64.9 373.837H32.3ZM23.6 444.127H4.1V433.927H14V411.427H4.1V401.227H23.6V405.227C25.1333 406.293 27.7333 407.093 31.4 407.627C37.2667 408.493 45.2667 409.293 55.4 410.027C65.5333 410.76 74.8 411.16 83.2 411.227V439.027H23.6V444.127ZM23.6 428.827H73.6V420.527C65.2 420.127 56.8667 419.593 48.6 418.927C40.3333 418.26 34 417.627 29.6 417.027C27.5333 416.76 25.5333 416.227 23.6 415.427V428.827ZM83.2 482.477L14 464.377V453.677L35.3 459.277L83.2 445.077V455.877L52.1 464.077L83.2 471.777V482.477ZM46.1 501.474V498.974H14V488.774H83.2V498.974H55.7V501.574L83.2 509.474V520.374L51 509.974L14 522.474V511.174L46.1 501.474ZM83.2 528.716V538.916H23.6V550.316H83.2V560.516H23.6V565.616H4.1V555.416H14V528.716H83.2ZM83.2 607.438H14V597.238H54.3L14 582.738L14 573.638H83.2V583.838H42.7L83.2 598.338L83.2 607.438ZM83.2 653.629H14V643.429H54.3L14 628.929V619.829H83.2V630.029H42.7L83.2 644.529V653.629Z" fill="#464646" fill-opacity="0.1" shape-rendering="crispEdges"/>
</g>
<defs>
<filter id="filter0_bd_192_401" x="-45.9004" y="-49.8" width="179.9" height="753.429" filterUnits="userSpaceOnUse" color-interpolation-filters="sRGB">
<feFlood flood-opacity="0" result="BackgroundImageFix"/>
<feGaussianBlur in="BackgroundImageFix" stdDeviation="25"/>
<feComposite in2="SourceAlpha" operator="in" result="effect1_backgroundBlur_192_401"/>
<feColorMatrix in="SourceAlpha" type="matrix" values="0 0 0 0 0 0 0 0 0 0 0 0 0 0 0 0 0 0 127 0" result="hardAlpha"/>
<feOffset dy="4"/>
<feGaussianBlur stdDeviation="2"/>
<feComposite in2="hardAlpha" operator="out"/>
<feColorMatrix type="matrix" values="0 0 0 0 0 0 0 0 0 0 0 0 0 0 0 0 0 0 0.25 0"/>
<feBlend mode="normal" in2="effect1_backgroundBlur_192_401" result="effect2_dropShadow_192_401"/>
<feBlend mode="normal" in="SourceGraphic" in2="effect2_dropShadow_192_401" result="shape"/>
</filter>
</defs>
</svg>
