<svg width="33" height="33" viewBox="0 0 33 33" fill="none" xmlns="http://www.w3.org/2000/svg">
<g clip-path="url(#clip0_192_44)">
<path fill-rule="evenodd" clip-rule="evenodd" d="M18.15 26.4C19.0252 26.4 19.8646 26.7477 20.4835 27.3665C21.1023 27.9854 21.45 28.8248 21.45 29.7C21.45 30.5752 21.1023 31.4146 20.4835 32.0335C19.8646 32.6523 19.0252 33 18.15 33C17.2748 33 16.4354 32.6523 15.8165 32.0335C15.1977 31.4146 14.85 30.5752 14.85 29.7C14.85 28.8248 15.1977 27.9854 15.8165 27.3665C16.4354 26.7477 17.2748 26.4 18.15 26.4ZM7.82265 21.45C8.91667 21.45 9.96588 21.8846 10.7395 22.6582C11.5131 23.4318 11.9476 24.481 11.9476 25.575C11.9476 26.669 11.5131 27.7182 10.7395 28.4918C9.96588 29.2654 8.91667 29.7 7.82265 29.7C6.72863 29.7 5.67942 29.2654 4.90583 28.4918C4.13225 27.7182 3.69765 26.669 3.69765 25.575C3.69765 24.481 4.13225 23.4318 4.90583 22.6582C5.67942 21.8846 6.72863 21.45 7.82265 21.45ZM26.9263 22.275C27.8016 22.275 28.6409 22.6227 29.2598 23.2415C29.8787 23.8604 30.2264 24.6998 30.2264 25.575C30.2264 26.4502 29.8787 27.2896 29.2598 27.9085C28.6409 28.5273 27.8016 28.875 26.9263 28.875C26.0511 28.875 25.2118 28.5273 24.5929 27.9085C23.974 27.2896 23.6264 26.4502 23.6264 25.575C23.6264 24.6998 23.974 23.8604 24.5929 23.2415C25.2118 22.6227 26.0511 22.275 26.9263 22.275ZM30.525 15.3764C31.1814 15.3764 31.8109 15.6371 32.2751 16.1013C32.7392 16.5654 33 17.1949 33 17.8514C33 18.5078 32.7392 19.1373 32.2751 19.6014C31.8109 20.0656 31.1814 20.3263 30.525 20.3263C29.8686 20.3263 29.2391 20.0656 28.7749 19.6014C28.3108 19.1373 28.05 18.5078 28.05 17.8514C28.05 17.1949 28.3108 16.5654 28.7749 16.1013C29.2391 15.6371 29.8686 15.3764 30.525 15.3764ZM4.125 9.9C5.21902 9.9 6.26823 10.3346 7.04182 11.1082C7.8154 11.8818 8.25 12.931 8.25 14.025C8.25 15.119 7.8154 16.1682 7.04182 16.9418C6.26823 17.7154 5.21902 18.15 4.125 18.15C3.03098 18.15 1.98177 17.7154 1.20818 16.9418C0.434597 16.1682 0 15.119 0 14.025C0 12.931 0.434597 11.8818 1.20818 11.1082C1.98177 10.3346 3.03098 9.9 4.125 9.9ZM29.3469 8.59155C29.7845 8.59155 30.2042 8.76539 30.5136 9.07482C30.8231 9.38426 30.9969 9.80394 30.9969 10.2415C30.9969 10.6792 30.8231 11.0988 30.5136 11.4083C30.2042 11.7177 29.7845 11.8915 29.3469 11.8915C28.9093 11.8915 28.4896 11.7177 28.1802 11.4083C27.8707 11.0988 27.6969 10.6792 27.6969 10.2415C27.6969 9.80394 27.8707 9.38426 28.1802 9.07482C28.4896 8.76539 28.9093 8.59155 29.3469 8.59155ZM13.2 0C14.5128 0 15.7719 0.521516 16.7002 1.44982C17.6285 2.37813 18.15 3.63718 18.15 4.95C18.15 6.26282 17.6285 7.52187 16.7002 8.45018C15.7719 9.37848 14.5128 9.9 13.2 9.9C11.8872 9.9 10.6281 9.37848 9.69982 8.45018C8.77152 7.52187 8.25 6.26282 8.25 4.95C8.25 3.63718 8.77152 2.37813 9.69982 1.44982C10.6281 0.521516 11.8872 0 13.2 0V0ZM25.575 4.95C25.7938 4.95 26.0036 5.03692 26.1584 5.19164C26.3131 5.34635 26.4 5.5562 26.4 5.775C26.4 5.9938 26.3131 6.20365 26.1584 6.35836C26.0036 6.51308 25.7938 6.6 25.575 6.6C25.3562 6.6 25.1464 6.51308 24.9916 6.35836C24.8369 6.20365 24.75 5.9938 24.75 5.775C24.75 5.5562 24.8369 5.34635 24.9916 5.19164C25.1464 5.03692 25.3562 4.95 25.575 4.95Z" fill="white"/>
</g>
<defs>
<clipPath id="clip0_192_44">
<rect width="33" height="33" fill="white"/>
</clipPath>
</defs>
</svg>
