<svg width="88" height="610" viewBox="0 0 88 610" fill="none" xmlns="http://www.w3.org/2000/svg">
<g filter="url(#filter0_bd_134_87)">
<path d="M64.4 559.1H83.9V569.3H74V591.8H83.9V602H64.4V598C62.8667 596.933 60.2667 596.133 56.6 595.6C50.7333 594.733 42.7333 593.933 32.6 593.2C22.4667 592.467 13.2 592.067 4.8 592L4.8 564.2H64.4V559.1ZM64.4 574.4H14.4V582.7C22.8 583.1 31.1333 583.633 39.4 584.3C47.6667 584.967 54 585.6 58.4 586.2C60.4667 586.467 62.4667 587 64.4 587.8V574.4ZM4.8 551.073V536.973C4.8 533.773 5.53333 530.973 7 528.573C8.4 526.107 10.3333 524.207 12.8 522.873C15.2667 521.54 18 520.873 21 520.873H32.9C35.9 520.873 38.6333 521.54 41.1 522.873C43.5667 524.207 45.5333 526.107 47 528.573C48.4 530.973 49.1 533.773 49.1 536.973V540.873H74V551.073H4.8ZM39.5 537.273C39.5 535.273 38.9 533.74 37.7 532.673C36.4333 531.607 34.7333 531.073 32.6 531.073H21.3C19.1667 531.073 17.5 531.607 16.3 532.673C15.0333 533.74 14.4 535.273 14.4 537.273V540.873H39.5V537.273ZM22.8 512.734C19.2 512.734 15.9667 512.034 13.1 510.634C10.2333 509.168 8 507.134 6.39999 504.534C4.79999 501.934 4 498.968 4 495.634C4 492.301 4.79999 489.334 6.39999 486.734C8 484.134 10.2333 482.134 13.1 480.734C15.9667 479.268 19.2 478.534 22.8 478.534H56C59.6 478.534 62.8333 479.268 65.7 480.734C68.5667 482.134 70.8 484.134 72.4 486.734C74 489.334 74.8 492.301 74.8 495.634C74.8 498.968 74 501.934 72.4 504.534C70.8 507.134 68.5667 509.168 65.7 510.634C62.8333 512.034 59.6 512.734 56 512.734H22.8ZM55.7 502.534C58.6333 502.534 60.9667 501.934 62.7 500.734C64.3667 499.468 65.2 497.768 65.2 495.634C65.2 493.501 64.3667 491.834 62.7 490.634C60.9667 489.368 58.6333 488.734 55.7 488.734H23.1C20.1667 488.734 17.8667 489.368 16.2 490.634C14.4667 491.834 13.6 493.501 13.6 495.634C13.6 497.768 14.4667 499.468 16.2 500.734C17.8667 501.934 20.1667 502.534 23.1 502.534H55.7ZM30.2 452.97C30.2 449.77 30.9333 446.97 32.4 444.57C33.8 442.104 35.7333 440.204 38.2 438.87C40.6667 437.537 43.4 436.87 46.4 436.87H57.8C60.8 436.87 63.5333 437.537 66 438.87C68.4667 440.204 70.4333 442.104 71.9 444.57C73.3 446.97 74 449.77 74 452.97V467.87H4.8L4.8 439.47H14.4V457.67H30.2V452.97ZM46.7 447.07C44.5667 447.07 42.9 447.604 41.7 448.67C40.4333 449.737 39.8 451.27 39.8 453.27V457.67H64.4V453.27C64.4 451.27 63.8 449.737 62.6 448.67C61.3333 447.604 59.6333 447.07 57.5 447.07H46.7ZM74 396.334V406.534H14.4V414.034C22.8 414.434 31.1333 414.967 39.4 415.634C47.6667 416.3 54 416.934 58.4 417.534C63.6667 418.334 67.6 420.1 70.2 422.834C72.7333 425.567 74 429.034 74 433.234H64.4C64.4 429.834 61.8 427.734 56.6 426.934C50.7333 426.067 42.7333 425.267 32.6 424.534C22.4667 423.8 13.2 423.4 4.8 423.334L4.8 396.334H74ZM4.8 383.886V355.686H14.4V373.686H33.1V359.686H42.7V373.686H64.4V355.186H74V383.886H4.8ZM4.8 345.214L4.8 335.014H33.1V323.014H4.8V312.814H74V323.014H42.7V335.014H74V345.214H4.8ZM4.8 266.59H74V276.79H33.7L74 291.29V300.39H4.8V290.19H45.3L4.8 275.69V266.59ZM4.8 254.198V225.998H14.4V243.998H33.1V229.998H42.7V243.998H64.4V225.498H74L74 254.198H4.8ZM41.9 187.983V190.483H74V200.683H4.8V190.483H32.3V187.883L4.8 179.983V169.083L37 179.483L74 166.983V178.283L41.9 187.983ZM4.8 152.441V143.441L74 129.041V139.741L58.5 142.441V153.441L74 156.141V166.841L4.8 152.441ZM48.9 144.041L26.3 147.941L48.9 151.841V144.041ZM74 90.9531V101.153H14.4V112.553H74V122.753H4.8L4.8 90.9531H74ZM74 47.1148V57.3148H14.4V64.8148C22.8 65.2148 31.1333 65.7482 39.4 66.4148C47.6667 67.0815 54 67.7148 58.4 68.3148C63.6667 69.1148 67.6 70.8815 70.2 73.6148C72.7333 76.3482 74 79.8148 74 84.0148H64.4C64.4 80.6148 61.8 78.5148 56.6 77.7148C50.7333 76.8482 42.7333 76.0482 32.6 75.3148C22.4667 74.5815 13.2 74.1815 4.8 74.1148L4.8 47.1148H74ZM4.8 0.867187H74V11.0672H33.7L74 25.5672V34.6672H4.8V24.4672H45.3L4.8 9.96719V0.867187Z" fill="#464646" fill-opacity="0.1" shape-rendering="crispEdges"/>
</g>
<defs>
<filter id="filter0_bd_134_87" x="-46" y="-49.1328" width="179.9" height="701.133" filterUnits="userSpaceOnUse" color-interpolation-filters="sRGB">
<feFlood flood-opacity="0" result="BackgroundImageFix"/>
<feGaussianBlur in="BackgroundImageFix" stdDeviation="25"/>
<feComposite in2="SourceAlpha" operator="in" result="effect1_backgroundBlur_134_87"/>
<feColorMatrix in="SourceAlpha" type="matrix" values="0 0 0 0 0 0 0 0 0 0 0 0 0 0 0 0 0 0 127 0" result="hardAlpha"/>
<feOffset dy="4"/>
<feGaussianBlur stdDeviation="2"/>
<feComposite in2="hardAlpha" operator="out"/>
<feColorMatrix type="matrix" values="0 0 0 0 0 0 0 0 0 0 0 0 0 0 0 0 0 0 0.25 0"/>
<feBlend mode="normal" in2="effect1_backgroundBlur_134_87" result="effect2_dropShadow_134_87"/>
<feBlend mode="normal" in="SourceGraphic" in2="effect2_dropShadow_134_87" result="shape"/>
</filter>
</defs>
</svg>
