<svg width="1401" height="1435" viewBox="0 0 1401 1435" fill="none" xmlns="http://www.w3.org/2000/svg">
<path d="M539.999 516.945C486.451 527.802 447.255 580.781 469.503 616.416C491.751 652.051 536.851 673.983 574.046 668.877C611.24 663.771 574.48 603.704 579.788 571.452C585.254 539.076 565.28 511.884 539.999 516.945Z" stroke="#464646" stroke-opacity="0.7" stroke-miterlimit="10"/>
<path d="M482.833 700.949C507.151 733.697 543.174 722.062 579.688 737.98C601.131 747.26 610.541 743.083 618.878 736.886C632.095 726.878 634.45 695.83 634.574 683.987C635.265 647.89 617.092 594.784 628.836 561.481C649.434 502.529 578.116 486.182 542.265 481.493C496.438 475.39 467.845 492.967 457.381 523.366C434.502 591.402 406.957 598.318 482.833 700.949Z" stroke="#464646" stroke-opacity="0.7" stroke-miterlimit="10"/>
<path d="M409.394 599.069C389.846 624.785 429.564 667.816 465.182 749.181C492.163 810.708 558.822 776.669 617.32 804.71C677.682 833.51 677.023 800.793 679.85 752.375C683.222 698.15 654.644 604.006 679.438 547.604C716.632 462.84 592.125 455.037 545.92 442.079C479.178 423.326 451.805 450.41 437.083 489.131C422.19 528.936 423.218 580.988 409.394 599.069Z" stroke="#464646" stroke-opacity="0.7" stroke-miterlimit="10"/>
<path d="M376.341 586.973C340.09 616.563 397.888 677.876 444.551 796.054C479.09 883.777 571.344 830.396 652.024 870.662C737.2 913.437 736.839 865.238 730.226 791.502C723.479 715.971 692.531 601.994 726.13 532.965C780.047 422.396 602.431 422.374 545.559 401.214C457.921 368.602 427.85 403.504 413.213 452.964C398.261 502.671 400.299 567.304 376.341 586.973Z" stroke="#464646" stroke-opacity="0.7" stroke-miterlimit="10"/>
<path d="M544.821 360.379C436.761 313.997 403.455 357.123 388.516 416.936C373.731 476.946 377.156 553.768 342.399 575.222C289.708 608.154 365.508 688.607 422.915 843.292C465.215 957.204 583.015 884.171 685.693 936.658C795.821 992.509 796.139 928.599 779.708 830.583C763.123 732.371 729.793 599.732 772.315 518.052C843.288 381.837 612.358 389.328 544.821 360.379Z" stroke="#464646" stroke-opacity="0.7" stroke-miterlimit="10"/>
<path d="M416.168 896.838C478.034 1005.28 597.468 970.565 704.161 1016.75C811.167 1063 827.766 1010.13 836.726 919.512C841.747 868.397 814.091 795.936 795.651 723.243C775.278 642.875 774.025 569.424 829.852 514.088C939.289 405.782 626.555 340.358 544.985 320.155C430.882 291.797 391.365 341.674 368.812 408.388C346.412 475.298 341.323 556.238 296.025 581.81C228.864 619.713 324.517 735.966 416.168 896.838Z" stroke="#464646" stroke-opacity="0.7" stroke-miterlimit="10"/>
<path d="M413.31 949.833C492.805 1053.21 615.67 1056.57 726.178 1095.85C830.003 1132.75 868.526 1090.63 897.305 1007.08C917.303 949.054 871.084 856.384 839.416 761.839C806.098 662.254 797.803 571.596 890.951 509.263C1026.49 418.871 645.145 289.654 548.923 279.4C429.153 266.66 382.747 325.698 352.853 399.363C322.959 473.028 308.999 557.976 252.999 587.49C172.136 630.733 284.859 782.821 413.31 949.833Z" stroke="#464646" stroke-opacity="0.7" stroke-miterlimit="10"/>
<path d="M409.527 993.864C505.9 1093.17 633.116 1134.78 747.641 1167.31C848.16 1195.87 911.303 1165.55 957.073 1087.65C994.073 1024.52 927.092 909.542 881.991 792.995C835.825 674.112 817.531 561.655 950.426 496.801C1109.4 419.179 661.251 229.038 550.843 230.059C424.976 231.116 372.434 301.002 335.222 381.409C297.852 461.94 275.523 550.999 208.908 584.348C113.855 631.994 242.529 822.038 409.527 993.864Z" stroke="#464646" stroke-opacity="0.7" stroke-miterlimit="10"/>
</svg>
