<svg width="24" height="42" viewBox="0 0 24 42" fill="none" xmlns="http://www.w3.org/2000/svg">
<path d="M8.92489 14.4191C8.92489 13.4014 8.92489 12.4416 8.92489 11.4008C8.76278 11.4008 8.61224 11.4008 8.46171 11.4008C7.47745 11.4008 6.4932 11.4008 5.50894 11.4008C4.94155 11.4008 4.73311 11.2158 4.73311 10.6607C4.72153 9.66615 4.73311 8.67162 4.73311 7.66552C4.73311 7.2839 4.90681 7.05261 5.24261 6.89071C9.56176 4.80913 13.8809 2.72756 18.2001 0.634416C18.6517 0.414694 18.999 0.460949 19.277 0.888829C20.1917 0.611285 21.0949 0.345306 21.9981 0.0793261C22.5771 -0.0941387 22.774 -0.00162413 23.0287 0.541899C23.3182 1.14324 23.5961 1.74459 23.874 2.34593C24.094 2.82007 24.0361 3.03979 23.6193 3.34047C22.9129 3.8493 22.2066 4.34656 21.5002 4.84383C21.3265 4.97104 21.2686 5.07512 21.2686 5.31797C21.2686 5.53769 21.0949 5.83836 20.9097 5.96557C20.4117 6.3125 19.8675 6.57848 19.3117 6.90228C19.6243 8.13966 20.1802 9.24984 20.9328 10.2675C21.616 11.1811 22.4266 11.9559 23.3877 12.5688C23.6887 12.7654 23.9319 12.9851 23.8045 13.3783C23.6887 13.7715 23.3529 13.8177 22.994 13.7946C20.2612 13.6327 17.8643 12.7885 16.2084 10.4641C15.9189 10.0593 15.6989 9.59677 15.4326 9.13419C15.1199 9.20358 14.9694 9.36548 14.9694 9.7471C14.9925 11.1464 14.981 12.5457 14.981 13.9565C14.981 14.0837 14.9925 14.2109 15.0041 14.396C15.722 14.396 16.4284 14.396 17.1347 14.396C17.8179 14.396 17.9916 14.5694 18.0032 15.2748C18.0264 16.7088 17.98 18.1428 18.0958 19.5652C18.2464 21.4386 18.9643 23.127 20.1338 24.5957C22.0097 26.9433 22.8898 29.5915 22.8434 32.5866C22.8203 34.2635 22.8434 35.9403 22.8319 37.6171C22.8203 39.9069 21.4307 41.5837 19.2538 41.9537C18.999 42 18.7327 42 18.478 42C13.7767 42 9.07542 42 4.37415 42C1.81509 42 0.0318436 40.2307 0.00868462 37.6749C-0.00289487 35.8015 -0.00289487 33.9165 0.00868462 32.0431C0.0202641 29.3949 0.842406 27.0126 2.47511 24.9311C4.04992 22.9304 4.81417 20.6754 4.79101 18.1428C4.79101 18.0965 4.79101 18.0503 4.79101 18.0156C4.89523 16.8707 4.58258 15.7143 4.95313 14.5926C6.07634 14.1878 7.23428 14.5232 8.38065 14.4075C8.53119 14.4075 8.70488 14.4191 8.92489 14.4191ZM21.5581 31.0948C21.4307 31.1527 21.3381 31.1874 21.2455 31.222C20.0528 31.8234 18.779 32.1241 17.4358 32.1241C15.3631 32.1356 13.4177 31.6268 11.5187 30.7942C10.3144 30.2738 9.09858 29.7649 7.83642 29.418C5.94896 28.8976 4.06151 28.9786 2.23195 29.7649C1.53718 30.0656 1.17821 30.4819 1.18979 31.2914C1.21295 33.3846 1.16663 35.4777 1.16663 37.5824C1.16663 39.5946 2.40564 40.8204 4.40889 40.8204C9.05226 40.8204 13.6956 40.8204 18.339 40.8204C20.3538 40.8204 21.5928 39.5831 21.5928 37.5824C21.5928 35.79 21.5928 33.9975 21.5928 32.205C21.616 31.8465 21.5813 31.488 21.5581 31.0948ZM1.76877 28.6779C3.60991 27.8684 5.42788 27.7528 7.29218 28.0534C8.85541 28.3078 10.326 28.8629 11.7503 29.5452C12.943 30.1234 14.182 30.5629 15.4789 30.771C17.3663 31.0833 19.1959 30.9445 20.9212 30.0194C21.2339 29.8575 21.3381 29.684 21.2339 29.3139C20.817 27.8453 20.0875 26.5501 19.1496 25.3589C18.0611 23.9712 17.3663 22.3985 16.9958 20.6754C16.6831 19.1836 16.7758 17.6802 16.7526 16.1884C16.7526 16.0034 16.7526 15.8299 16.7526 15.668C13.1167 15.668 9.55018 15.668 5.97212 15.668C5.97212 15.9109 5.97212 16.1075 5.97212 16.3156C5.93738 17.5415 5.9837 18.7788 5.84475 19.9931C5.60158 22.1209 4.72154 24.0059 3.3899 25.6827C2.70671 26.5501 2.16247 27.5099 1.76877 28.6779ZM18.3737 1.89493C18.1769 1.98744 18.0032 2.06839 17.8411 2.14934C16.6021 2.73912 15.3631 3.34046 14.1357 3.94181C11.5187 5.20232 8.90173 6.46283 6.29634 7.73491C6.15739 7.8043 5.96054 7.94307 5.96054 8.05871C5.9258 8.76413 5.94896 9.46956 5.94896 10.2212C6.15739 10.2212 6.30792 10.2212 6.47004 10.2212C7.44271 10.2212 8.40381 10.2212 9.37649 10.2212C9.95546 10.2212 10.1639 10.4294 10.1639 11.0076C10.1755 11.6437 10.1639 12.2797 10.1639 12.9157C10.1639 13.4014 10.1639 13.8871 10.1639 14.396C11.3797 14.396 12.5493 14.396 13.7535 14.396C13.7535 14.2109 13.7535 14.0606 13.7535 13.9103C13.7535 12.3953 13.7651 10.8688 13.742 9.35392C13.7304 8.85665 13.9041 8.53285 14.3557 8.33625C14.6452 8.20905 14.9115 8.03558 15.1894 7.88524C15.8726 7.51519 16.1505 7.61927 16.4168 8.35938C16.9958 9.9437 18.0379 11.1117 19.5433 11.8634C20.0065 12.0947 20.516 12.245 21.0023 12.4185C21.0139 12.3838 21.037 12.3491 21.0486 12.3144C20.9212 12.1756 20.7939 12.0484 20.6665 11.9096C19.3349 10.4988 18.4664 8.85665 18.0379 6.9601C17.9337 6.49753 18.0611 6.21998 18.4664 6.00026C18.9411 5.74585 19.4043 5.45674 19.8907 5.17919C19.3812 4.05745 18.8832 2.99354 18.3737 1.89493ZM22.0329 1.33984C21.2802 1.55956 20.5623 1.76772 19.7864 1.999C20.0991 2.66974 20.4002 3.30577 20.7012 3.95337C21.3613 3.47924 21.9866 3.03979 22.635 2.57722C22.4266 2.1609 22.2297 1.76772 22.0329 1.33984Z" fill="#02E602"/>
</svg>
