<svg width="44" height="35" viewBox="0 0 44 35" fill="none" xmlns="http://www.w3.org/2000/svg">
<path d="M43.9913 28.2448C43.8176 28.8703 43.696 29.5207 43.4701 30.1295C42.3755 33.0566 39.3524 35.0329 36.0861 34.9996C32.8111 34.9662 29.8488 32.9231 28.7976 29.9877C28.7281 29.8043 28.6673 29.6208 28.6152 29.429C28.4241 28.7452 28.4241 28.7452 27.7117 28.7452C26.1481 28.7452 24.5844 28.7452 22.9686 28.7452C22.9686 28.5784 22.9686 28.4283 22.9686 28.2782C22.9512 26.8188 23.012 25.3511 22.8904 23.9001C22.5864 20.3393 20.9271 17.4206 18.0257 15.2023C15.0113 12.9007 11.5451 12.0835 7.74886 12.6589C5.71609 12.9674 3.86575 13.7346 2.2152 14.9188C2.03277 15.0522 1.85035 15.1857 1.65054 15.3274C1.09457 14.6853 0.564659 14.0682 0 13.4094C1.78085 11.9834 3.79625 11.0244 6.02014 10.449C6.02014 7.79715 6.02014 5.16196 6.02014 2.47674C5.1688 2.47674 4.32616 2.47674 3.45745 2.47674C3.45745 1.63448 3.45745 0.833919 3.45745 0C10.3724 0 17.296 0 24.2543 0C24.2543 0.800562 24.2543 1.60946 24.2543 2.46006C23.5593 2.46006 22.8731 2.46006 22.126 2.46006C23.1771 5.82909 24.2109 9.13976 25.2533 12.4588C27.1645 12.4588 29.0409 12.4588 30.9781 12.4588C30.9781 12.3003 30.9781 12.1502 30.9781 12.0001C30.9781 10.1071 30.9694 8.22244 30.9781 6.32945C30.9868 4.48649 32.0813 3.10218 33.9056 2.60183C34.2097 2.51844 34.5224 2.50176 34.8612 2.44338C34.8612 3.28564 34.8612 4.09454 34.8612 4.87843C34.5745 5.02019 34.2184 5.10359 34.0186 5.32041C33.8014 5.54556 33.6103 5.89581 33.6016 6.19602C33.5668 8.26414 33.5842 10.3323 33.5842 12.4671C33.7927 12.4671 33.9925 12.4588 34.1836 12.4671C35.2782 12.5171 36.3988 12.4421 37.4586 12.6506C39.7173 13.1009 41.3331 15.0939 41.3852 17.3122C41.4199 18.7131 41.3852 20.1225 41.4113 21.5235C41.4113 21.7319 41.5242 21.9821 41.6719 22.1322C42.8881 23.3164 43.6438 24.7257 43.9131 26.3685C43.9305 26.4936 43.9739 26.6104 44 26.7271C43.9913 27.2441 43.9913 27.7445 43.9913 28.2448ZM8.65232 10.0154C8.78263 10.0154 8.87818 10.0237 8.98243 10.0154C11.9882 9.84859 14.8462 10.4157 17.4436 11.8667C18.321 12.3587 19.1724 12.5338 20.1453 12.4921C20.9185 12.4588 21.6916 12.4838 22.5169 12.4838C21.4657 9.1064 20.4233 5.79574 19.3982 2.50176C15.7844 2.50176 12.2314 2.50176 8.65232 2.50176C8.65232 5.00351 8.65232 7.48859 8.65232 10.0154ZM36.1816 32.4978C39.0484 32.4978 41.3939 30.2379 41.3852 27.4776C41.3765 24.7424 39.0397 22.4991 36.1903 22.4908C33.3236 22.4825 30.9694 24.734 30.9607 27.486C30.9607 30.2463 33.3062 32.4978 36.1816 32.4978ZM38.7791 20.431C38.7791 19.4553 38.7878 18.5547 38.7791 17.6541C38.7704 16.0446 37.6758 14.9939 35.9992 14.9939C31.3256 14.9855 26.6519 14.9939 21.9783 14.9939C21.874 14.9939 21.7698 15.0189 21.6134 15.0356C22.8731 16.4199 23.846 17.9126 24.4975 19.5721C24.6192 19.889 24.7755 20.0057 25.1491 20.0057C28.3633 19.989 31.5775 19.9974 34.7917 19.9974C36.1121 19.989 37.4413 19.939 38.7791 20.431ZM25.427 22.5158C25.4965 23.7584 25.5574 24.9842 25.6269 26.2434C26.5042 26.2434 27.3816 26.2518 28.259 26.2268C28.3546 26.2268 28.5023 26.06 28.5283 25.9516C28.815 24.7424 29.3536 23.6499 30.1876 22.6993C30.231 22.6492 30.2571 22.5909 30.3005 22.5158C28.6413 22.5158 27.0255 22.5158 25.427 22.5158Z" fill="#02E602"/>
<path d="M0.0087439 24.1702C0.236071 23.269 0.384709 22.3429 0.708213 21.4752C2.36071 17.0781 7.30945 14.3497 12.1358 15.134C16.525 15.8516 19.8387 18.8636 20.7742 23.002C22.0158 28.4588 17.9938 34.0323 12.2145 34.875C6.95972 35.6343 2.21207 32.8809 0.524602 28.075C0.271044 27.3574 0.174867 26.5898 0 25.8472C0.00874337 25.2799 0.0087439 24.7292 0.0087439 24.1702ZM10.5095 17.4953C6.1903 17.4869 2.6405 20.8661 2.63175 24.9962C2.62301 29.1179 6.16407 32.5054 10.492 32.5138C14.8113 32.5221 18.3611 29.1429 18.3698 25.0129C18.3786 20.8911 14.8375 17.5036 10.5095 17.4953Z" fill="#02E602"/>
<path d="M37.9999 26.99C38.0099 27.5384 37.3277 27.9932 36.5151 27.9999C35.6924 28.0066 35.0101 27.5518 35.0001 27.01C34.9901 26.4616 35.6723 26.0068 36.485 26.0001C37.2976 25.9934 37.9899 26.4415 37.9999 26.99Z" fill="#02E602"/>
<path d="M6.00207 24.4412C6.06432 22.511 7.89628 20.9543 10.0573 21.001C12.2805 21.0477 14.0858 22.69 13.9968 24.5735C13.9079 26.5194 12.076 28.0604 9.92387 27.9982C7.70063 27.9281 5.93093 26.3248 6.00207 24.4412ZM9.98612 23.3282C9.2569 23.336 8.66107 23.8653 8.66996 24.5035C8.67886 25.1417 9.28358 25.6632 10.0128 25.6554C10.742 25.6476 11.3379 25.1184 11.329 24.4801C11.3201 23.8497 10.7065 23.3282 9.98612 23.3282Z" fill="#02E602"/>
</svg>
