<svg width="26" height="26" viewBox="0 0 26 26" fill="none" xmlns="http://www.w3.org/2000/svg">
<path d="M13.5613 13.4642L18.8263 8.19922C18.9447 8.06106 19.0065 7.88333 18.9995 7.70157C18.9924 7.5198 18.9171 7.34738 18.7885 7.21876C18.6598 7.09013 18.4874 7.01478 18.3057 7.00776C18.1239 7.00074 17.9462 7.06257 17.808 7.18089L12.543 12.4459L7.278 7.17366C7.13984 7.05534 6.96212 6.99352 6.78035 7.00054C6.59859 7.00756 6.42617 7.08291 6.29754 7.21153C6.16892 7.34016 6.09357 7.51258 6.08655 7.69435C6.07952 7.87611 6.14135 8.05383 6.25967 8.192L11.5247 13.4642L6.25245 18.7292C6.17684 18.794 6.11544 18.8736 6.07209 18.9632C6.02874 19.0528 6.00438 19.1504 6.00054 19.2499C5.9967 19.3494 6.01346 19.4486 6.04977 19.5412C6.08607 19.6339 6.14115 19.7181 6.21153 19.7885C6.28192 19.8589 6.36609 19.9139 6.45877 19.9502C6.55145 19.9865 6.65063 20.0033 6.7501 19.9995C6.84956 19.9956 6.94716 19.9713 7.03676 19.9279C7.12636 19.8846 7.20604 19.8232 7.27078 19.7476L12.543 14.4826L17.808 19.7476C17.9462 19.8659 18.1239 19.9277 18.3057 19.9207C18.4874 19.9137 18.6598 19.8383 18.7885 19.7097C18.9171 19.5811 18.9924 19.4086 18.9995 19.2269C19.0065 19.0451 18.9447 18.8674 18.8263 18.7292L13.5613 13.4642Z" fill="#F52525"/>
</svg>
