<svg width="40" height="34" viewBox="0 0 40 34" fill="none" xmlns="http://www.w3.org/2000/svg">
<path d="M39.9792 10.4074C39.7189 10.7919 39.5315 11.3302 39.0838 11.3943C38.6152 11.4583 38.6256 11.7916 38.6465 12.2017C38.6569 12.4837 38.6569 12.7785 38.6465 13.0605C38.636 14.073 38.105 14.7395 37.2825 14.7779C36.9597 14.7908 36.6265 14.8036 36.3038 14.7779C36.0643 14.7651 35.9706 14.8292 35.9706 15.1624C35.981 17.0978 35.981 19.0332 35.9706 20.9813C35.9706 21.2633 36.0226 21.4043 36.2725 21.353C36.3975 21.3274 36.5328 21.3402 36.6578 21.353C37.0326 21.3915 37.3033 21.7247 37.3033 22.1605C37.3033 22.5578 37.0534 22.968 36.7098 22.968C35.7728 22.9936 34.8357 22.9936 33.8986 22.968C33.5342 22.9551 33.2947 22.5578 33.3155 22.1092C33.3364 21.6863 33.5758 21.3915 33.9507 21.353C34.6483 21.2889 34.6483 21.2889 34.6483 20.4174C34.6483 18.6999 34.6379 16.9953 34.6587 15.2778C34.6587 14.8677 34.5546 14.7523 34.2422 14.7908C33.9403 14.8292 33.6487 14.8036 33.3468 14.7908C32.5138 14.7523 32.0036 14.0986 31.9828 13.0733C31.962 12.0607 31.962 12.0607 31.1395 12.3043C28.7551 12.9964 26.5478 14.1755 24.4342 15.6879C23.9552 16.034 23.8511 16.5851 23.6012 17.085C24.1322 17.5079 24.6008 17.995 24.986 18.6102C25.34 19.1613 25.4233 19.7765 25.1838 20.4046C24.934 21.0454 24.4966 21.3402 23.924 21.3402C21.3002 21.3402 18.666 21.3402 16.0422 21.3402C15.4695 21.3402 15.0322 21.0326 14.7927 20.3918C14.5637 19.7765 14.6366 19.1741 14.9802 18.6358C15.3237 18.0847 15.7298 17.6105 16.1983 17.2388C16.3545 17.1234 16.3337 17.0465 16.2921 16.8415C16.1359 16.1365 15.6986 15.8161 15.23 15.4829C13.0852 13.932 10.805 12.8298 8.37899 12.1633C8.06664 12.0736 7.9521 12.1633 7.99375 12.5606C8.01457 12.7272 8.00416 12.9067 7.99375 13.0861C7.97293 14.0986 7.45233 14.7523 6.61938 14.7908C6.26537 14.8036 5.91137 14.8036 5.56777 14.7908C5.38036 14.7779 5.3283 14.8677 5.3283 15.0984C5.33871 17.085 5.33871 19.0716 5.3283 21.0582C5.3283 21.2761 5.38036 21.3787 5.56777 21.3658C5.72395 21.353 5.88013 21.353 6.03631 21.3658C6.40073 21.4043 6.6402 21.6991 6.66103 22.1349C6.68185 22.5835 6.44237 22.968 6.06755 22.9808C5.14088 23.0064 4.22464 23.0064 3.29798 22.9808C2.93356 22.968 2.66285 22.5706 2.67326 22.1477C2.68367 21.7119 2.95438 21.3915 3.32921 21.353C4.00599 21.2889 4.00599 21.2889 4.00599 20.443C4.00599 18.6999 3.99557 16.9568 4.0164 15.2009C4.0164 14.8677 3.95393 14.7523 3.6728 14.7779C3.35003 14.8036 3.02726 14.8036 2.69408 14.7779C1.87154 14.7267 1.35095 14.0602 1.34053 13.0476C1.34053 12.8682 1.33012 12.6888 1.34053 12.5222C1.38218 11.9454 1.3926 11.4712 0.747056 11.2917C0.257696 11.1507 0.0286328 10.5483 0.00780894 9.89468C-0.00260298 9.382 -0.00260298 8.86932 0.00780894 8.35665C0.00780894 7.24157 0.559641 6.57509 1.47589 6.56227C2.21514 6.56227 2.96479 6.53664 3.70404 6.57509C4.04763 6.58791 4.20381 6.49819 4.2767 6.0496C4.40164 5.25495 4.57864 4.4603 4.75565 3.67846C4.82853 3.35804 4.76606 3.28114 4.49535 3.28114C3.24592 3.29395 1.99649 3.29395 0.747056 3.28114C0.309755 3.28114 0.0286334 2.96072 0.0182215 2.48649C0.00780958 1.99945 0.299341 1.6662 0.757465 1.64057C0.851173 1.64057 0.934469 1.64057 1.02818 1.64057C2.29843 1.64057 3.5791 1.64057 4.84935 1.64057C5.08883 1.64057 5.24501 1.60212 5.38036 1.30733C5.64066 0.756201 6.05713 0.384511 6.54649 0.166623C6.62979 0.128172 6.76514 0.140986 6.80679 0C7.11915 0 7.43151 0 7.74386 0C8.37899 0.256339 8.97247 0.576765 9.31607 1.33296C9.44101 1.60212 9.59719 1.64057 9.81584 1.64057C11.1069 1.62775 12.3876 1.64057 13.6787 1.64057C14.345 1.64057 14.6678 1.90973 14.6782 2.46085C14.6782 3.01198 14.3554 3.28114 13.6891 3.28114C12.4292 3.28114 11.1694 3.28114 9.8679 3.28114C10.0761 4.34494 10.2844 5.3703 10.4926 6.38284C10.5343 6.61354 10.6904 6.54946 10.805 6.54946C12.4917 6.54946 14.1888 6.54946 15.8756 6.54946C16.0526 6.54946 16.1463 6.48537 16.2296 6.2803C16.6044 5.3703 17.2395 4.92171 18.0517 4.90889C19.3427 4.89607 20.6234 4.89607 21.9145 4.90889C22.7474 4.92171 23.393 5.3703 23.7782 6.29312C23.8511 6.47256 23.924 6.54946 24.101 6.54946C25.819 6.53664 27.5369 6.54946 29.2549 6.54946C29.3694 6.54946 29.484 6.56227 29.5256 6.37002C29.7234 5.34467 29.9317 4.33213 30.1399 3.28114C28.8905 3.28114 27.6827 3.28114 26.4749 3.28114C26.3291 3.28114 26.1938 3.28114 26.048 3.28114C25.6315 3.26832 25.3296 2.92226 25.34 2.46085C25.34 1.99944 25.642 1.65339 26.0688 1.65339C27.3599 1.64057 28.6406 1.62775 29.9317 1.6662C30.3377 1.67902 30.6293 1.5893 30.8479 1.11508C31.0145 0.730567 31.3373 0.512681 31.6496 0.30761C31.8058 0.205074 32.0036 0.21789 32.1182 0.0256354C32.4305 0.0256354 32.7429 0.0256354 33.0552 0.0256354C33.7112 0.25634 34.3047 0.615215 34.6587 1.37141C34.7836 1.62775 34.919 1.6662 35.1272 1.6662C36.4495 1.65339 37.7823 1.67902 39.1046 1.65339C39.5106 1.64057 39.8022 1.79437 40 2.23015C40 2.39677 40 2.55057 40 2.71719C39.8126 3.16579 39.5211 3.31959 39.115 3.30677C37.9384 3.28114 36.7515 3.31959 35.5749 3.29396C35.2313 3.28114 35.2001 3.39649 35.2834 3.781C35.4708 4.58846 35.627 5.42157 35.7832 6.24185C35.8352 6.51101 35.9185 6.60072 36.1476 6.60072C36.8348 6.57509 37.522 6.62636 38.2091 6.58791C39.0421 6.52383 39.6668 6.84425 40 7.83115C39.9792 8.67707 39.9792 9.54862 39.9792 10.4074ZM17.3228 11.4712C17.3228 12.8041 17.3228 14.1243 17.3228 15.4572C17.3228 16.1237 17.5623 16.4313 18.1037 16.4313C19.3532 16.4441 20.6026 16.4441 21.852 16.4313C22.4039 16.4313 22.6329 16.1237 22.6329 15.4572C22.6329 12.8298 22.6329 10.2023 22.6329 7.57481C22.6329 6.8827 22.3934 6.57509 21.8312 6.57509C20.5922 6.57509 19.3636 6.57509 18.1246 6.57509C17.5623 6.57509 17.3228 6.86988 17.3228 7.57481C17.3228 8.88214 17.3228 10.1767 17.3228 11.4712ZM23.976 14.0986C24.1426 13.9961 24.2572 13.932 24.3613 13.8551C25.6732 12.9323 27.0372 12.1633 28.4636 11.5481C31.4518 10.2407 34.5442 9.77933 37.699 9.85623C38.0009 9.86905 38.407 10.0357 38.5944 9.77933C38.7402 9.56144 38.6256 9.07439 38.6569 8.71552C38.6881 8.31819 38.5944 8.20284 38.2612 8.21566C35.8769 8.24129 33.503 8.22848 31.1186 8.22848C28.8592 8.22848 26.5894 8.22848 24.3301 8.22848C24.1114 8.22848 23.976 8.24129 23.976 8.60017C23.9865 10.3945 23.976 12.2017 23.976 14.0986ZM16.0005 14.1243C16.0005 12.2658 15.9901 10.4971 16.0109 8.74115C16.0109 8.3182 15.938 8.21566 15.584 8.21566C11.1694 8.22848 6.76515 8.22848 2.35049 8.22848C1.26765 8.22848 1.27806 8.22848 1.31971 9.57426C1.33012 9.80496 1.38218 9.86904 1.55918 9.86904C2.14225 9.85623 2.72532 9.86904 3.3188 9.86904C6.79638 9.86904 10.1282 10.7021 13.3142 12.4324C14.2201 12.9067 15.0843 13.4706 16.0005 14.1243ZM30.8375 6.57509C32.0036 6.57509 33.1177 6.57509 34.2422 6.57509C34.44 6.57509 34.4504 6.48537 34.4088 6.2803C34.1589 5.07551 33.9194 3.8579 33.6591 2.65311C33.5238 2.02508 33.1281 1.65339 32.6492 1.64057C32.1702 1.64057 31.7642 2.02508 31.6288 2.64029C31.3685 3.94762 31.1082 5.22931 30.8375 6.57509ZM9.13906 6.57509C8.86835 5.24213 8.61847 3.94762 8.34776 2.66593C8.2124 2.0379 7.81675 1.6662 7.3378 1.6662C6.85885 1.6662 6.4632 2.0379 6.32784 2.66593C6.06755 3.87072 5.83848 5.08833 5.57819 6.29312C5.52613 6.54946 5.5886 6.58791 5.77601 6.58791C6.86926 6.57509 7.97293 6.57509 9.13906 6.57509ZM15.9901 19.6868C18.6868 19.6868 21.3106 19.6868 23.9969 19.6868C23.4034 18.7255 22.7058 18.1103 21.7583 18.0847C20.613 18.0591 19.4677 18.0719 18.3328 18.0847C17.3332 18.0847 16.6148 18.6871 15.9901 19.6868ZM4.64111 13.1502C5.04718 13.1502 5.44283 13.1502 5.8489 13.1502C6.69226 13.1502 6.68185 13.1502 6.66103 12.112C6.66103 11.8429 6.58814 11.7788 6.36949 11.7403C5.47407 11.5993 4.58905 11.5481 3.69363 11.5096C2.63161 11.4712 2.64202 11.4712 2.65244 12.7913C2.65244 13.0989 2.73573 13.163 2.96479 13.163C3.51663 13.1374 4.07887 13.1502 4.64111 13.1502ZM35.3146 13.1502C35.6478 13.1502 35.9914 13.163 36.3246 13.1502C36.6474 13.1374 37.0847 13.3296 37.2513 13.0605C37.4074 12.8169 37.2825 12.2914 37.3137 11.8941C37.3345 11.5865 37.2617 11.484 36.991 11.484C36.0331 11.5096 35.0647 11.5352 34.1068 11.6506C33.2739 11.7403 33.2843 11.7403 33.2947 12.7913C33.2947 13.0605 33.3572 13.1502 33.5758 13.1502C34.1693 13.1374 34.742 13.1502 35.3146 13.1502Z" fill="#02E602"/>
<path d="M26.3093 25.9992C25.7947 25.9715 24.8601 24.2388 25.0177 23.6012C25.1647 23.0051 25.7737 22.7834 26.1098 23.2546C26.4143 23.6982 26.6873 24.1972 26.9184 24.724C27.1704 25.3061 26.8028 26.0269 26.3093 25.9992Z" fill="#02E602"/>
<path d="M15 24.0175C15 24.0868 14.9582 24.2669 14.8745 24.4193C14.6548 24.8211 14.4456 25.2368 14.2051 25.6247C13.954 26.0542 13.5775 26.1097 13.2742 25.8187C12.9813 25.5277 12.9081 25.0151 13.1277 24.5856C13.3474 24.1561 13.5775 23.7404 13.8181 23.3386C14.0063 23.0199 14.2678 22.9229 14.5502 23.0615C14.8326 23.2 14.9791 23.4771 15 24.0175Z" fill="#02E602"/>
<path d="M10.2846 31.0002C10.8087 30.9858 11.1724 31.7467 10.9157 32.3352C10.7018 32.8233 10.445 33.2826 10.1562 33.7133C9.93161 34.0578 9.61071 34.0865 9.32191 33.8281C9.0331 33.5697 8.91544 33.1821 9.06519 32.7515C9.26842 32.1917 9.56793 31.7036 9.87813 31.2299C9.98509 31.072 10.1455 31.0289 10.2846 31.0002Z" fill="#02E602"/>
<path d="M27.6787 27.0004C28.2097 26.9714 29.1524 28.6665 28.979 29.3474C28.8165 30.0138 28.1989 30.2312 27.8413 29.7096C27.5487 29.2894 27.2995 28.8114 27.0828 28.3043C26.8336 27.7248 27.1803 27.0149 27.6787 27.0004Z" fill="#02E602"/>
<path d="M29.6878 31C30.2103 31 31.1357 32.6892 30.9833 33.3444C30.8309 33.9997 30.1994 34.2327 29.8402 33.723C29.5571 33.3153 29.3067 32.8493 29.089 32.3688C28.8277 31.7718 29.1761 31.0146 29.6878 31Z" fill="#02E602"/>
<path d="M11.7079 29.9978C11.1691 29.9978 10.8242 29.2556 11.0936 28.6443C11.2984 28.164 11.5571 27.7128 11.8265 27.2907C12.0528 26.9414 12.3761 26.9123 12.6671 27.1743C12.9581 27.4217 13.0874 27.8147 12.9365 28.2513C12.7425 28.8335 12.4408 29.3283 12.1175 29.7941C12.0205 29.9542 11.8588 30.0124 11.7079 29.9978Z" fill="#02E602"/>
<path d="M19.9981 32.5315C19.9981 32.6096 19.9981 32.6877 19.9981 32.7658C19.9903 33.5469 19.7973 34 19.4961 34C19.195 34 19.0097 33.5313 19.0019 32.7502C19.0019 32.4846 18.9942 32.2034 19.0097 31.9378C19.0405 31.3754 19.249 30.9848 19.5039 31.0005C19.7587 31.0005 19.9595 31.391 19.9903 31.9691C20.0058 32.1409 19.9981 32.3284 19.9981 32.5315Z" fill="#02E602"/>
<path d="M19.9931 24.5079C20.0009 25.5131 19.8457 26 19.5043 26C19.1707 26 19 25.5131 19 24.5236C19 24.3351 19 24.1309 19.0078 23.9424C19.0388 23.3613 19.2405 23 19.5121 23C19.7681 23.0157 19.9543 23.3613 19.9931 23.9267C20.0086 24.1152 19.9931 24.3194 19.9931 24.5079Z" fill="#02E602"/>
<path d="M15.9997 32.1863C15.9644 32.4989 15.9361 32.9521 15.8653 33.3741C15.7946 33.8429 15.554 34.093 15.3489 33.968C15.1154 33.8273 14.981 33.4679 15.0022 32.9365C15.0163 32.5145 15.0659 32.0925 15.1295 31.6861C15.2003 31.186 15.4125 30.9359 15.6248 31.0141C15.8653 31.1079 16.0068 31.5142 15.9997 32.1863Z" fill="#02E602"/>
<path d="M19.9931 28.5002C20.0009 29.5422 19.8534 29.9842 19.5043 30C19.1552 30 19 29.5422 19 28.516C19 28.3266 19 28.1214 19.0078 27.9319C19.0388 27.3478 19.2405 26.9847 19.5121 27.0005C19.7681 27.0163 19.9543 27.3636 19.9931 27.9161C20.0086 28.1056 19.9931 28.295 19.9931 28.5002Z" fill="#02E602"/>
<path d="M23 32.1455C23.0071 31.4585 23.1417 31.1306 23.3755 31.0213C23.6022 30.9276 23.7864 31.1462 23.8644 31.6146C23.9352 32.0518 23.9848 32.5046 23.999 32.973C24.0132 33.5038 23.8785 33.8629 23.6447 33.9722C23.418 34.0815 23.2338 33.8629 23.1488 33.4101C23.0638 32.973 23.0354 32.489 23 32.1455Z" fill="#02E602"/>
<path d="M16.0009 28.8102C16.0362 28.481 16.0644 28.0578 16.1208 27.6659C16.1983 27.1486 16.4309 26.8978 16.6706 27.0389C16.882 27.1643 17.03 27.6502 16.9948 28.1675C16.9666 28.5437 16.9314 28.9356 16.875 29.2962C16.8045 29.8135 16.593 30.0643 16.3604 29.9859C16.1349 29.8762 15.9868 29.4372 16.0009 28.8102Z" fill="#02E602"/>
<path d="M24 28.8471C23.9929 29.4902 23.8797 29.8353 23.6604 29.9608C23.4269 30.0863 23.2288 29.9137 23.1439 29.3961C23.0732 28.9569 23.0166 28.502 23.0024 28.0471C22.9812 27.5451 23.1015 27.1686 23.3279 27.0431C23.5543 26.9176 23.7594 27.0588 23.8514 27.5608C23.9293 28 23.9646 28.4863 24 28.8471Z" fill="#02E602"/>
<path d="M22.0003 24.0883C21.9932 23.5412 22.1345 23.1348 22.3536 23.0254C22.5657 22.916 22.7918 23.1661 22.8625 23.6507C22.9261 24.0727 22.9685 24.5103 22.9968 24.9636C23.0251 25.4638 22.8625 25.8858 22.6434 25.9796C22.4243 26.0734 22.2052 25.8389 22.1275 25.37C22.078 25.073 22.0568 24.7604 22.0215 24.4635C22.0144 24.3384 22.0073 24.1977 22.0003 24.0883Z" fill="#02E602"/>
<path d="M17.9997 24.2107C17.9642 24.5253 17.9357 24.9656 17.8645 25.3902C17.7933 25.862 17.5656 26.0822 17.345 25.9721C17.1315 25.862 16.9749 25.4374 17.0033 24.9342C17.0247 24.5095 17.0674 24.0849 17.1315 23.676C17.2097 23.1571 17.3948 22.9369 17.6297 23.0155C17.8645 23.0784 18.0069 23.5188 17.9997 24.2107Z" fill="#02E602"/>
<path d="M19.5039 9.0004C19.7873 9.0004 20.0077 9.45691 19.9998 10.0236C19.9919 10.5588 19.7715 10.9996 19.5118 10.9996C19.2363 11.0153 19.0002 10.5588 19.0002 9.99213C18.9923 9.44116 19.2206 8.98465 19.5039 9.0004Z" fill="#02E602"/>
</svg>
