<svg width="40" height="40" viewBox="0 0 40 40" fill="none" xmlns="http://www.w3.org/2000/svg">
<path d="M19.5 37C16.0388 37 12.6554 35.9737 9.77753 34.0507C6.89967 32.1278 4.65665 29.3947 3.33212 26.197C2.00758 22.9993 1.66102 19.4806 2.33627 16.0859C3.01151 12.6913 4.67822 9.57306 7.12564 7.12564C9.57306 4.67822 12.6913 3.01151 16.0859 2.33627C19.4806 1.66102 22.9993 2.00758 26.197 3.33212C29.3947 4.65665 32.1278 6.89967 34.0507 9.77753C35.9737 12.6554 37 16.0388 37 19.5C37 24.1413 35.1563 28.5925 31.8744 31.8744C28.5925 35.1563 24.1413 37 19.5 37ZM19.5 4.50001C16.5333 4.50001 13.6332 5.37974 11.1665 7.02796C8.69972 8.67618 6.77713 11.0189 5.64181 13.7598C4.5065 16.5006 4.20945 19.5166 4.78823 22.4264C5.36701 25.3361 6.79562 28.0088 8.89341 30.1066C10.9912 32.2044 13.6639 33.633 16.5737 34.2118C19.4834 34.7906 22.4994 34.4935 25.2403 33.3582C27.9811 32.2229 30.3238 30.3003 31.972 27.8336C33.6203 25.3668 34.5 22.4667 34.5 19.5C34.5 15.5218 32.9197 11.7065 30.1066 8.89341C27.2936 6.08036 23.4783 4.50001 19.5 4.50001Z" fill="#02E602"/>
<path d="M26.1871 28L19 20.9193V9H21.5714V19.868L28 26.214L26.1871 28Z" fill="#02E602"/>
</svg>
