<svg width="79" height="279" viewBox="0 0 79 279" fill="none" xmlns="http://www.w3.org/2000/svg">
<g filter="url(#filter0_bd_134_86)">
<path d="M74.2 44.6L5 44.6V34.4L44.5 34.4L15.4 24.6V20.2L44.5 10.4L5 10.4V0.2L74.2 0.2V9.3L34.5 22.4L74.2 35.5V44.6ZM74.2 90.8359H5V80.6359H45.3L5 66.1359V57.0359L74.2 57.0359V67.2359H33.7L74.2 81.7359V90.8359ZM74.2 103.227V113.427H45.9V125.427H74.2V135.627H5V125.427H36.3V113.427H5L5 103.227H74.2ZM74.2 179.352L5 161.252V150.552L26.3 156.152L74.2 141.952V152.752L43.1 160.952L74.2 168.652V179.352ZM55.9 205.273C58.9 205.273 61.2333 204.739 62.9 203.673C64.5667 202.673 65.4 201.239 65.4 199.373C65.4 197.439 64.5667 195.906 62.9 194.773C61.2333 193.706 58.9 193.173 55.9 193.173H23.3C20.3 193.173 17.9667 193.706 16.3 194.773C14.6333 195.906 13.8 197.439 13.8 199.373C13.8 201.306 14.6333 202.806 16.3 203.873C17.9667 205.006 20.3 205.573 23.3 205.573H28.1V215.773H23C17.4667 215.773 12.9333 214.239 9.4 211.173C5.93333 208.173 4.2 204.239 4.2 199.373C4.2 194.506 5.93333 190.539 9.4 187.473C12.9333 184.473 17.4667 182.973 23 182.973H56.2C61.7333 182.973 66.2333 184.473 69.7 187.473C73.2333 190.539 75 194.506 75 199.373C75 204.173 73.2333 208.039 69.7 210.973C66.2333 213.973 61.7333 215.473 56.2 215.473H52.1V205.273H55.9ZM49.4 239.309C49.4 242.509 48.6667 245.309 47.2 247.709C45.8 250.176 43.8667 252.076 41.4 253.409C38.9333 254.743 36.2 255.409 33.2 255.409H21.2C18.2 255.409 15.4667 254.743 13 253.409C10.5333 252.076 8.56667 250.176 7.1 247.709C5.7 245.309 5 242.509 5 239.309V224.809H74.2V235.009H49.4V239.309ZM74.2 270.309H5V260.109H74.2V270.309ZM32.9 245.209C35.0333 245.209 36.7 244.676 37.9 243.609C39.1667 242.543 39.8 241.009 39.8 239.009V235.009H14.6V239.009C14.6 241.009 15.2 242.543 16.4 243.609C17.6667 244.676 19.3667 245.209 21.5 245.209H32.9Z" fill="#464646" fill-opacity="0.1" shape-rendering="crispEdges"/>
</g>
<defs>
<filter id="filter0_bd_134_86" x="-45.7998" y="-49.8" width="170.8" height="370.109" filterUnits="userSpaceOnUse" color-interpolation-filters="sRGB">
<feFlood flood-opacity="0" result="BackgroundImageFix"/>
<feGaussianBlur in="BackgroundImageFix" stdDeviation="25"/>
<feComposite in2="SourceAlpha" operator="in" result="effect1_backgroundBlur_134_86"/>
<feColorMatrix in="SourceAlpha" type="matrix" values="0 0 0 0 0 0 0 0 0 0 0 0 0 0 0 0 0 0 127 0" result="hardAlpha"/>
<feOffset dy="4"/>
<feGaussianBlur stdDeviation="2"/>
<feComposite in2="hardAlpha" operator="out"/>
<feColorMatrix type="matrix" values="0 0 0 0 0 0 0 0 0 0 0 0 0 0 0 0 0 0 0.25 0"/>
<feBlend mode="normal" in2="effect1_backgroundBlur_134_86" result="effect2_dropShadow_134_86"/>
<feBlend mode="normal" in="SourceGraphic" in2="effect2_dropShadow_134_86" result="shape"/>
</filter>
</defs>
</svg>
