<svg width="79" height="242" viewBox="0 0 79 242" fill="none" xmlns="http://www.w3.org/2000/svg">
<g filter="url(#filter0_bd_134_85)">
<path d="M74 202V212.2H14.4V223.6H74V233.8H4.8L4.8 202H74ZM74 158.162V168.362H14.4V175.862C22.8 176.262 31.1333 176.795 39.4 177.462C47.6667 178.128 54 178.762 58.4 179.362C63.6667 180.162 67.6 181.928 70.2 184.662C72.7333 187.395 74 190.862 74 195.062H64.4C64.4 191.662 61.8 189.562 56.6 188.762C50.7333 187.895 42.7333 187.095 32.6 186.362C22.4667 185.628 13.2 185.228 4.8 185.162V158.162H74ZM4 113.514C4 108.514 5.76666 104.481 9.3 101.414C12.7667 98.3474 17.2667 96.8141 22.8 96.8141H56C61.5333 96.8141 66.0667 98.3474 69.6 101.414C73.0667 104.481 74.8 108.514 74.8 113.514C74.8 118.514 73.0667 122.547 69.6 125.614C66.0667 128.681 61.5333 130.214 56 130.214H42.7V135.514H74V145.714H4.8V135.514H33.1V130.214H22.8C17.2667 130.214 12.7667 128.681 9.3 125.614C5.76666 122.547 4 118.514 4 113.514ZM23.1 107.014C20.1667 107.014 17.8667 107.581 16.2 108.714C14.4667 109.847 13.6 111.447 13.6 113.514C13.6 115.581 14.4667 117.181 16.2 118.314C17.8667 119.447 20.1667 120.014 23.1 120.014H55.7C58.6333 120.014 60.9667 119.447 62.7 118.314C64.3667 117.181 65.2 115.581 65.2 113.514C65.2 111.447 64.3667 109.847 62.7 108.714C60.9667 107.581 58.6333 107.014 55.7 107.014H23.1ZM23.1 65.5437C20.1 65.5437 17.7667 66.0771 16.1 67.1437C14.4333 68.1437 13.6 69.5771 13.6 71.4437C13.6 73.3771 14.4333 74.9104 16.1 76.0437C17.7667 77.1104 20.1 77.6438 23.1 77.6438H55.7C58.7 77.6438 61.0333 77.1104 62.7 76.0437C64.3667 74.9104 65.2 73.3771 65.2 71.4437C65.2 69.5104 64.3667 68.0104 62.7 66.9437C61.0333 65.8104 58.7 65.2437 55.7 65.2437H50.9V55.0437H56C61.5333 55.0437 66.0667 56.5771 69.6 59.6437C73.0667 62.6437 74.8 66.5771 74.8 71.4437C74.8 76.3104 73.0667 80.2771 69.6 83.3437C66.0667 86.3437 61.5333 87.8437 56 87.8437H22.8C17.2667 87.8437 12.7667 86.3437 9.3 83.3437C5.76666 80.2771 4 76.3104 4 71.4437C4 66.6437 5.76666 62.7771 9.3 59.8437C12.7667 56.8437 17.2667 55.3437 22.8 55.3437H26.9V65.5437H23.1ZM29.6 31.507C29.6 28.307 30.3333 25.507 31.8 23.107C33.2 20.6404 35.1333 18.7404 37.6 17.407C40.0667 16.0737 42.8 15.407 45.8 15.407H57.8C60.8 15.407 63.5333 16.0737 66 17.407C68.4667 18.7404 70.4333 20.6404 71.9 23.107C73.3 25.507 74 28.307 74 31.507V46.007H4.8L4.8 35.807H29.6V31.507ZM4.8 0.507029H74V10.707H4.8V0.507029ZM46.1 25.607C43.9667 25.607 42.3 26.1404 41.1 27.207C39.8333 28.2737 39.2 29.807 39.2 31.807V35.807H64.4V31.807C64.4 29.807 63.8 28.2737 62.6 27.207C61.3333 26.1404 59.6333 25.607 57.5 25.607H46.1Z" fill="#464646" fill-opacity="0.1" shape-rendering="crispEdges"/>
</g>
<defs>
<filter id="filter0_bd_134_85" x="-46" y="-49.493" width="170.8" height="333.293" filterUnits="userSpaceOnUse" color-interpolation-filters="sRGB">
<feFlood flood-opacity="0" result="BackgroundImageFix"/>
<feGaussianBlur in="BackgroundImageFix" stdDeviation="25"/>
<feComposite in2="SourceAlpha" operator="in" result="effect1_backgroundBlur_134_85"/>
<feColorMatrix in="SourceAlpha" type="matrix" values="0 0 0 0 0 0 0 0 0 0 0 0 0 0 0 0 0 0 127 0" result="hardAlpha"/>
<feOffset dy="4"/>
<feGaussianBlur stdDeviation="2"/>
<feComposite in2="hardAlpha" operator="out"/>
<feColorMatrix type="matrix" values="0 0 0 0 0 0 0 0 0 0 0 0 0 0 0 0 0 0 0.25 0"/>
<feBlend mode="normal" in2="effect1_backgroundBlur_134_85" result="effect2_dropShadow_134_85"/>
<feBlend mode="normal" in="SourceGraphic" in2="effect2_dropShadow_134_85" result="shape"/>
</filter>
</defs>
</svg>
