<svg width="88" height="520" viewBox="0 0 88 520" fill="none" xmlns="http://www.w3.org/2000/svg">
<g filter="url(#filter0_bd_121_723)">
<path d="M74 480V490.2H14.4V501.6H74V511.8H4.8L4.8 480H74ZM4.8 467.562V453.462C4.8 450.262 5.53333 447.462 7 445.062C8.4 442.595 10.3333 440.695 12.8 439.362C15.2667 438.028 18 437.362 21 437.362H32.9C35.9 437.362 38.6333 438.028 41.1 439.362C43.5667 440.695 45.5333 442.595 47 445.062C48.4 447.462 49.1 450.262 49.1 453.462V457.362H74V467.562H4.8ZM39.5 453.762C39.5 451.762 38.9 450.228 37.7 449.162C36.4333 448.095 34.7333 447.562 32.6 447.562H21.3C19.1667 447.562 17.5 448.095 16.3 449.162C15.0333 450.228 14.4 451.762 14.4 453.762V457.362H39.5V453.762ZM4.8 427.523V399.323H14.4V417.323H33.1V403.323H42.7V417.323H64.4L64.4 398.823H74L74 427.523H4.8ZM4.8 355.051H74V365.251H33.7L74 379.751V388.851H4.8V378.651H45.3L4.8 364.151V355.051ZM4.8 298.259H74V308.459H34.5L63.6 318.259V322.659L34.5 332.459H74V342.659H4.8V333.559L44.5 320.459L4.8 307.359V298.259ZM4.8 254.523L74 272.623V283.323L52.7 277.723L4.8 291.923V281.123L35.9 272.923L4.8 265.223L4.8 254.523ZM4.8 248.226V238.026H64.4V228.626H4.8V218.426H64.4V209.026H4.8L4.8 198.826H64.4V193.726H83.9V203.926H74V248.226H4.8ZM4.8 185.726V157.526H14.4V175.526H33.1V161.526H42.7V175.526H64.4L64.4 157.026H74L74 185.726H4.8ZM23.1 127.821C20.1 127.821 17.7667 128.354 16.1 129.421C14.4333 130.421 13.6 131.854 13.6 133.721C13.6 135.654 14.4333 137.188 16.1 138.321C17.7667 139.388 20.1 139.921 23.1 139.921H55.7C58.7 139.921 61.0333 139.388 62.7 138.321C64.3667 137.188 65.2 135.654 65.2 133.721C65.2 131.788 64.3667 130.288 62.7 129.221C61.0333 128.088 58.7 127.521 55.7 127.521H50.9V117.321H56C61.5333 117.321 66.0667 118.854 69.6 121.921C73.0667 124.921 74.8 128.854 74.8 133.721C74.8 138.588 73.0667 142.554 69.6 145.621C66.0667 148.621 61.5333 150.121 56 150.121H22.8C17.2667 150.121 12.7667 148.621 9.3 145.621C5.76666 142.554 4 138.588 4 133.721C4 128.921 5.76666 125.054 9.3 122.121C12.7667 119.121 17.2667 117.621 22.8 117.621H26.9V127.821H23.1ZM4.8 113.966L4.8 80.7656H14.4V92.2656H74V102.466H14.4L14.4 113.966H4.8ZM37.5 49.4258C39.5 44.0924 43.5 41.4258 49.5 41.4258H57.8C60.8 41.4258 63.5333 42.0924 66 43.4258C68.4667 44.7591 70.4333 46.6591 71.9 49.1258C73.3 51.5258 74 54.3258 74 57.5258V73.2258H4.8V59.0258C4.8 55.8258 5.53333 53.0258 7 50.6258C8.4 48.1591 10.3333 46.2591 12.8 44.9258C15.2667 43.5924 18 42.9258 21 42.9258H26.7C29.5667 42.9258 31.9 43.5258 33.7 44.7258C35.5 45.9258 36.7667 47.4924 37.5 49.4258ZM14.4 63.0258H33.3V59.3258C33.3 57.3258 32.7 55.7924 31.5 54.7258C30.2333 53.6591 28.5333 53.1258 26.4 53.1258H21.3C19.1667 53.1258 17.5 53.6591 16.3 54.7258C15.0333 55.7924 14.4 57.3258 14.4 59.3258V63.0258ZM49.8 51.6258C47.6667 51.6258 46 52.1591 44.8 53.2258C43.5333 54.2924 42.9 55.8258 42.9 57.8258V63.0258H64.4V57.8258C64.4 55.8258 63.8 54.2924 62.6 53.2258C61.3333 52.1591 59.6333 51.6258 57.5 51.6258H49.8ZM4.8 24.1055V15.1055L74 0.705468V11.4055L58.5 14.1055V25.1055L74 27.8055V38.5055L4.8 24.1055ZM48.9 15.7055L26.3 19.6055L48.9 23.5055V15.7055Z" fill="#464646" fill-opacity="0.1" shape-rendering="crispEdges"/>
</g>
<defs>
<filter id="filter0_bd_121_723" x="-46" y="-49.2945" width="179.9" height="611.095" filterUnits="userSpaceOnUse" color-interpolation-filters="sRGB">
<feFlood flood-opacity="0" result="BackgroundImageFix"/>
<feGaussianBlur in="BackgroundImageFix" stdDeviation="25"/>
<feComposite in2="SourceAlpha" operator="in" result="effect1_backgroundBlur_121_723"/>
<feColorMatrix in="SourceAlpha" type="matrix" values="0 0 0 0 0 0 0 0 0 0 0 0 0 0 0 0 0 0 127 0" result="hardAlpha"/>
<feOffset dy="4"/>
<feGaussianBlur stdDeviation="2"/>
<feComposite in2="hardAlpha" operator="out"/>
<feColorMatrix type="matrix" values="0 0 0 0 0 0 0 0 0 0 0 0 0 0 0 0 0 0 0.25 0"/>
<feBlend mode="normal" in2="effect1_backgroundBlur_121_723" result="effect2_dropShadow_121_723"/>
<feBlend mode="normal" in="SourceGraphic" in2="effect2_dropShadow_121_723" result="shape"/>
</filter>
</defs>
</svg>
