<svg width="82" height="82" viewBox="0 0 82 82" fill="none" xmlns="http://www.w3.org/2000/svg">
<path d="M11.999 14.0002C10.8964 14.0002 9.99902 14.8976 9.99902 16.0002C9.99902 17.1029 10.8964 18.0002 11.999 18.0002C13.1017 18.0002 13.999 17.1029 13.999 16.0002C13.999 14.8976 13.1017 14.0002 11.999 14.0002ZM11.999 16.6669C11.631 16.6669 11.3324 16.3676 11.3324 16.0002C11.3324 15.6329 11.631 15.3336 11.999 15.3336C12.367 15.3336 12.6657 15.6329 12.6657 16.0002C12.6657 16.3676 12.367 16.6669 11.999 16.6669Z" fill="#464646"/>
<path d="M69.999 18.0002C71.1017 18.0002 71.999 17.1029 71.999 16.0002C71.999 14.8976 71.1017 14.0002 69.999 14.0002C68.8964 14.0002 67.999 14.8976 67.999 16.0002C67.999 17.1029 68.8964 18.0002 69.999 18.0002ZM69.999 15.3336C70.367 15.3336 70.6657 15.6329 70.6657 16.0002C70.6657 16.3676 70.367 16.6669 69.999 16.6669C69.631 16.6669 69.3324 16.3676 69.3324 16.0002C69.3324 15.6329 69.631 15.3336 69.999 15.3336Z" fill="#464646"/>
<path d="M13.999 66.0002C13.999 64.8976 13.1017 64.0002 11.999 64.0002C10.8964 64.0002 9.99902 64.8976 9.99902 66.0002C9.99902 67.1029 10.8964 68.0002 11.999 68.0002C13.1017 68.0002 13.999 67.1029 13.999 66.0002ZM11.3324 66.0002C11.3324 65.6329 11.631 65.3336 11.999 65.3336C12.367 65.3336 12.6657 65.6329 12.6657 66.0002C12.6657 66.3676 12.367 66.6669 11.999 66.6669C11.631 66.6669 11.3324 66.3676 11.3324 66.0002Z" fill="#464646"/>
<path d="M69.999 64.0002C68.8964 64.0002 67.999 64.8976 67.999 66.0002C67.999 67.1029 68.8964 68.0002 69.999 68.0002C71.1017 68.0002 71.999 67.1029 71.999 66.0002C71.999 64.8976 71.1017 64.0002 69.999 64.0002ZM69.999 66.6669C69.631 66.6669 69.3324 66.3676 69.3324 66.0002C69.3324 65.6329 69.631 65.3336 69.999 65.3336C70.367 65.3336 70.6657 65.6329 70.6657 66.0002C70.6657 66.3676 70.367 66.6669 69.999 66.6669Z" fill="#464646"/>
<path d="M54.3486 32.736L68.7021 19.8711C69.1955 20.0546 69.726 20.16 70.2825 20.16C70.2956 20.16 70.3079 20.1581 70.3203 20.1581L78.2798 30.3849C78.7999 30.9537 79.4879 31.255 80.1395 31.255C80.5391 31.255 80.9251 31.1411 81.2499 30.9055C81.6203 30.6368 82.7171 29.5618 81.2773 27.0194L78.6749 22.4643C77.9693 21.0522 77.2305 19.6629 76.616 19.0733L74.5936 17.0515C74.7453 16.5986 74.8312 16.1157 74.8312 15.6121C74.8312 13.1048 72.7906 11.0648 70.2825 11.0648C70.0567 11.0648 69.836 11.0869 69.6193 11.1188L61.6429 0.871074C60.8025 -0.0464553 59.5254 -0.270307 58.6721 0.349839C58.3017 0.618591 57.2049 1.6936 58.6447 4.236L61.2451 8.78721C61.9169 10.1329 62.6889 11.5899 63.306 12.1821L65.8263 14.7017C65.7658 14.9965 65.7346 15.3017 65.7346 15.6134C65.7346 15.6706 65.7411 15.7259 65.743 15.7819L54.29 22.7206C53.3013 19.2431 50.4366 16.5472 46.8572 15.8177V15.6212C46.8572 15.5782 46.8526 15.5359 46.8441 15.4936C46.5525 14.036 45.2194 13.0183 43.6026 13.0183H38.3952C36.7783 13.0183 35.4452 14.036 35.1536 15.4936C35.1451 15.5359 35.1406 15.5782 35.1406 15.6212V15.8177C31.5657 16.5465 28.7036 19.2379 27.7116 22.7233L16.8666 16.1522C16.8861 15.9804 16.8991 15.8066 16.8991 15.629C16.8991 15.1318 16.8158 14.6542 16.6674 14.2058L18.6826 12.1912C19.3095 11.5899 20.0808 10.1329 20.75 8.79046L23.355 4.2334C24.7935 1.6936 23.6967 0.618591 23.3263 0.349839C22.4723 -0.271608 21.1952 -0.0464553 20.3223 0.910769L12.4071 11.0849C12.3882 11.0849 12.37 11.0823 12.3505 11.0823C9.84247 11.0823 7.80248 13.1224 7.80248 15.6296C7.80248 15.9485 7.83633 16.2589 7.89882 16.5595L5.39212 19.0655C4.76788 19.6642 4.02909 21.0541 3.32479 22.4662L0.719799 27.0233C-0.718739 29.5631 0.378065 30.6381 0.74844 30.9068C1.07 31.1404 1.45209 31.2543 1.84915 31.2543C2.50723 31.2543 3.20827 30.9426 3.75245 30.3459L11.7041 20.1255C11.9157 20.1555 12.1298 20.1763 12.3498 20.1763C12.7378 20.1763 13.1134 20.1223 13.4733 20.0305L27.6491 32.736L28.341 48.6431L13.4733 61.9688C13.1134 61.877 12.7384 61.823 12.3498 61.823C12.1298 61.823 11.915 61.8439 11.7035 61.8744L3.71925 51.6144C2.87891 50.6962 1.60245 50.4736 0.74844 51.0931C0.378065 51.3619 -0.718739 52.4369 0.721101 54.9793L3.32284 59.5331C4.02844 60.9452 4.76723 62.3352 5.38236 62.9254L7.89882 65.4411C7.83633 65.7411 7.80248 66.0521 7.80248 66.371C7.80248 68.8783 9.84312 70.9183 12.3505 70.9183C12.3694 70.9183 12.3876 70.9157 12.4071 70.9157L20.3562 81.1296C20.8763 81.6983 21.5643 82.0002 22.2159 82.0002C22.6155 82.0002 23.0015 81.8864 23.3263 81.6508C23.6967 81.3814 24.7935 80.307 23.3537 77.7646L20.7532 73.2134C20.0815 71.8677 19.3095 70.4107 18.6924 69.8186L16.6674 67.7941C16.8158 67.3458 16.8991 66.8681 16.8991 66.371C16.8991 66.194 16.8861 66.0202 16.8666 65.8478L29.3539 58.2811C30.435 60.381 32.6202 61.823 35.1406 61.823H46.8572C49.3801 61.823 51.5679 60.3771 52.6478 58.2831L65.1168 65.838C65.0967 66.0131 65.083 66.1894 65.083 66.3697C65.083 66.8714 65.1676 67.3529 65.3186 67.8046L63.3151 69.8075C62.6882 70.4088 61.9169 71.8658 61.2477 73.2082L58.6428 77.7653C57.2042 80.3051 58.301 81.3801 58.6714 81.6488C58.993 81.8825 59.375 81.9963 59.7721 81.9963C60.4302 81.9963 61.1312 81.6846 61.6754 81.0879L69.5906 70.9144C69.6043 70.9144 69.6173 70.9163 69.631 70.9163C72.1396 70.9163 74.1796 68.8763 74.1796 66.369C74.1796 65.8706 74.0963 65.3916 73.9472 64.9426L75.9482 62.9423C76.5724 62.3436 77.3112 60.9537 78.0155 59.5416L80.6205 54.9845C82.059 52.4447 80.9622 51.3697 80.5919 51.101C79.7378 50.4795 78.4607 50.7047 77.5878 51.6619L69.6811 61.825C69.6642 61.825 69.6479 61.8224 69.6316 61.8224C69.2482 61.8224 68.8772 61.8751 68.5211 61.9649L53.6573 48.6438L54.3486 32.736ZM75.7047 20.0038C76.2528 20.5296 77.1661 22.3582 77.5097 23.0467C77.5149 23.0577 77.5364 23.1007 77.5429 23.1111L80.1453 27.6642C80.8203 28.8564 80.8028 29.6229 80.4845 29.854C80.213 30.0505 79.6493 29.9561 79.2724 29.5475L71.7712 19.9056C72.6617 19.5958 73.4252 19.0186 73.9674 18.2684L75.7047 20.0038ZM73.5294 15.6134C73.5294 17.4029 72.0732 18.8592 70.2825 18.8592C68.4925 18.8592 67.0364 17.4035 67.0364 15.6134C67.0364 13.8232 68.4919 12.3675 70.2819 12.3675C72.0726 12.3675 73.5294 13.8232 73.5294 15.6134ZM64.2166 11.2522C63.6679 10.7257 62.754 8.89523 62.4103 8.20611C62.4044 8.19504 62.3849 8.156 62.3784 8.14559L59.776 3.59243C59.101 2.40029 59.1192 1.63373 59.4369 1.40272C59.7044 1.2062 60.2701 1.29926 60.6482 1.70922L68.2901 11.5313C67.468 11.9341 66.7845 12.5751 66.3321 13.367L64.2166 11.2522ZM66.0053 17.1445C66.3002 17.9651 66.8229 18.6757 67.4986 19.2015L54.4274 30.9166L54.6682 25.3821C54.6682 24.937 54.6279 24.5023 54.5699 24.0729L66.0053 17.1445ZM38.3952 14.3197H43.6026C44.4103 14.3197 45.3047 14.7349 45.5423 15.6537C45.3307 15.6394 45.1199 15.6212 44.9044 15.6212H37.0933C36.8779 15.6212 36.667 15.6394 36.4554 15.6537C36.693 14.7349 37.5874 14.3197 38.3952 14.3197ZM21.3156 1.74891C21.727 1.29991 22.292 1.20685 22.5608 1.40272C22.8785 1.63308 22.8974 2.40029 22.223 3.58983L19.6193 8.14494C19.6128 8.15535 19.5933 8.19439 19.5874 8.20546C19.2437 8.89458 18.3292 10.7257 17.7714 11.2613L16.0451 12.987C15.5055 12.2348 14.7433 11.655 13.8541 11.3426L21.3156 1.74891ZM2.75849 29.5071C2.34645 29.9561 1.78145 30.0492 1.51327 29.8533C1.19562 29.6229 1.17675 28.8557 1.8511 27.6662L4.45479 23.1111C4.4613 23.1007 4.48278 23.0577 4.48799 23.0467C4.83167 22.3582 5.74557 20.5296 6.30276 19.9947L8.40914 17.889C8.86414 18.679 9.54891 19.318 10.3723 19.7175L2.75849 29.5071ZM9.10368 15.629C9.10368 13.8395 10.5598 12.3831 12.3498 12.3831C14.1405 12.3831 15.5966 13.8388 15.5966 15.629C15.5966 17.4191 14.1405 18.8748 12.3498 18.8748C10.5598 18.8748 9.10368 17.4191 9.10368 15.629ZM14.7888 19.4611C15.5432 18.9796 16.1467 18.2846 16.5112 17.4588L27.431 24.0755C27.3712 24.5134 27.3295 24.9566 27.3301 25.4108L27.5697 30.9166L14.7888 19.4611ZM6.293 61.9955C5.74492 61.469 4.83168 59.6398 4.48734 58.9514C4.48213 58.9403 4.4613 58.8987 4.45479 58.8882L1.8524 54.3351C1.1774 53.1429 1.19562 52.3764 1.51327 52.1454C1.7808 51.9502 2.34645 52.0426 2.72464 52.4525L10.3717 62.2818C9.54826 62.682 8.86349 63.3204 8.40849 64.1104L6.293 61.9955ZM9.10368 66.3703C9.10368 64.5808 10.5598 63.1245 12.3498 63.1245C14.1405 63.1245 15.5966 64.5802 15.5966 66.3703C15.5966 68.1605 14.1405 69.6162 12.3498 69.6162C10.5598 69.6162 9.10368 68.1598 9.10368 66.3703ZM17.7811 70.7471C18.3298 71.2736 19.2437 73.1041 19.5874 73.7932C19.5933 73.8043 19.6128 73.8433 19.6193 73.8537L22.2217 78.4069C22.8967 79.599 22.8785 80.3656 22.5608 80.5966C22.292 80.7912 21.7277 80.6994 21.3495 80.2901L13.8548 70.6567C14.7439 70.3437 15.5061 69.7645 16.0458 69.0123L17.7811 70.7471ZM16.5112 64.5405C16.1467 63.7147 15.5432 63.0197 14.7888 62.5382L28.4139 50.3259L28.6313 55.3157C28.6313 55.917 28.7199 56.4975 28.8735 57.0506L16.5112 64.5405ZM35.934 60.5216L36.4222 58.0768C36.6344 57.2308 37.4637 56.6172 38.3952 56.6172H43.6026C44.534 56.6172 45.3633 57.2308 45.5683 58.0462L46.063 60.5216H35.934ZM47.3851 60.4949L46.837 57.7605C46.4835 56.3439 45.1225 55.3157 43.6026 55.3157H38.3952C36.8753 55.3157 35.5142 56.3439 35.1536 57.7911L34.6127 60.4949C31.9888 60.2294 29.9332 58.0065 29.9332 55.2878L28.9373 32.3996C28.9373 32.399 28.9373 32.3977 28.9373 32.397L28.6313 25.3821C28.6313 24.8537 28.686 24.3377 28.7798 23.836C28.7798 23.8353 28.7798 23.8354 28.7798 23.8347C29.5101 19.9075 32.9567 16.9226 37.0933 16.9226H44.9044C49.0417 16.9226 52.4889 19.9088 53.2186 23.8171C53.2199 23.8295 53.2219 23.8406 53.2238 23.8529C53.313 24.341 53.3664 24.8414 53.3664 25.3542L52.0645 55.3157C52.0645 58.0078 50.0096 60.2294 47.3851 60.4949ZM60.6821 80.2504C60.2701 80.6994 59.7044 80.7918 59.4369 80.5966C59.1192 80.3662 59.1004 79.599 59.7747 78.4095L62.3784 73.8544C62.3849 73.844 62.4044 73.8049 62.4103 73.7939C62.754 73.1048 63.6685 71.2736 64.2264 70.738L65.9435 69.0214C66.4857 69.773 67.2493 70.3509 68.1404 70.6613L60.6821 80.2504ZM69.631 69.6162C67.8409 69.6162 66.3848 68.1605 66.3848 66.3703C66.3848 64.5802 67.8409 63.1245 69.631 63.1245C71.4217 63.1245 72.8778 64.5802 72.8778 66.3703C72.8778 68.1605 71.4217 69.6162 69.631 69.6162ZM78.5812 52.5013C78.9925 52.0517 79.5575 51.9593 79.8264 52.1551C80.144 52.3855 80.1629 53.1527 79.4885 54.3422L76.8848 58.8974C76.8783 58.9078 76.8569 58.9507 76.8517 58.9618C76.508 59.6502 75.5941 61.4788 75.0369 62.0137L73.3243 63.7258C72.7834 62.9729 72.0199 62.3937 71.1294 62.0814L78.5812 52.5013ZM67.2024 62.5323C66.446 63.0126 65.8407 63.7076 65.4742 64.5333L53.1275 57.0525C53.2785 56.5066 53.3657 55.9359 53.3657 55.3444L53.5838 50.3266L67.2024 62.5323Z" fill="#464646"/>
<path d="M46.7847 21.0002H35.2133C33.441 21.0002 31.999 22.4956 31.999 24.3336V29.6669C31.999 31.5049 33.441 33.0002 35.2133 33.0002H46.7847C48.5571 33.0002 49.999 31.5049 49.999 29.6669V24.3336C49.999 22.4956 48.5571 21.0002 46.7847 21.0002ZM48.7133 29.6669C48.7133 30.7696 47.848 31.6669 46.7847 31.6669H35.2133C34.15 31.6669 33.2847 30.7696 33.2847 29.6669V24.3336C33.2847 23.2309 34.15 22.3336 35.2133 22.3336H46.7847C47.848 22.3336 48.7133 23.2309 48.7133 24.3336V29.6669Z" fill="#464646"/>
</svg>
