<svg width="79" height="430" viewBox="0 0 79 430" fill="none" xmlns="http://www.w3.org/2000/svg">
<g filter="url(#filter0_bd_98_210)">
<path d="M4.8 421.8L4.8 395H14.4V411.6H74V421.8H4.8ZM4.8 384.496V375.496L74 361.096V371.796L58.5 374.496V385.496L74 388.196V398.896L4.8 384.496ZM48.9 376.096L26.3 379.996L48.9 383.896V376.096ZM30.2 339.908C30.2 336.708 30.9333 333.908 32.4 331.508C33.8 329.041 35.7333 327.141 38.2 325.808C40.6667 324.474 43.4 323.808 46.4 323.808H57.8C60.8 323.808 63.5333 324.474 66 325.808C68.4667 327.141 70.4333 329.041 71.9 331.508C73.3 333.908 74 336.708 74 339.908V354.808H4.8L4.8 326.408H14.4V344.608H30.2V339.908ZM46.7 334.008C44.5667 334.008 42.9 334.541 41.7 335.608C40.4333 336.674 39.8 338.208 39.8 340.208V344.608H64.4V340.208C64.4 338.208 63.8 336.674 62.6 335.608C61.3333 334.541 59.6333 334.008 57.5 334.008H46.7ZM4.8 314.183V300.083C4.8 296.883 5.53333 294.083 7 291.683C8.4 289.216 10.3333 287.316 12.8 285.983C15.2667 284.649 18 283.983 21 283.983H32.9C35.9 283.983 38.6333 284.649 41.1 285.983C43.5667 287.316 45.5333 289.216 47 291.683C48.4 294.083 49.1 296.883 49.1 300.083V303.983H74L74 314.183H4.8ZM39.5 300.383C39.5 298.383 38.9 296.849 37.7 295.783C36.4333 294.716 34.7333 294.183 32.6 294.183H21.3C19.1667 294.183 17.5 294.716 16.3 295.783C15.0333 296.849 14.4 298.383 14.4 300.383V303.983H39.5V300.383ZM22.8 275.844C19.2 275.844 15.9667 275.144 13.1 273.744C10.2333 272.277 8 270.244 6.39999 267.644C4.79999 265.044 4 262.077 4 258.744C4 255.41 4.79999 252.444 6.39999 249.844C8 247.244 10.2333 245.244 13.1 243.844C15.9667 242.377 19.2 241.644 22.8 241.644H56C59.6 241.644 62.8333 242.377 65.7 243.844C68.5667 245.244 70.8 247.244 72.4 249.844C74 252.444 74.8 255.41 74.8 258.744C74.8 262.077 74 265.044 72.4 267.644C70.8 270.244 68.5667 272.277 65.7 273.744C62.8333 275.144 59.6 275.844 56 275.844H22.8ZM55.7 265.644C58.6333 265.644 60.9667 265.044 62.7 263.844C64.3667 262.577 65.2 260.877 65.2 258.744C65.2 256.61 64.3667 254.944 62.7 253.744C60.9667 252.477 58.6333 251.844 55.7 251.844H23.1C20.1667 251.844 17.8667 252.477 16.2 253.744C14.4667 254.944 13.6 256.61 13.6 258.744C13.6 260.877 14.4667 262.577 16.2 263.844C17.8667 265.044 20.1667 265.644 23.1 265.644H55.7ZM30.2 216.08C30.2 212.88 30.9333 210.08 32.4 207.68C33.8 205.213 35.7333 203.313 38.2 201.98C40.6667 200.646 43.4 199.98 46.4 199.98H57.8C60.8 199.98 63.5333 200.646 66 201.98C68.4667 203.313 70.4333 205.213 71.9 207.68C73.3 210.08 74 212.88 74 216.08V230.98H4.8L4.8 202.58H14.4V220.78H30.2V216.08ZM46.7 210.18C44.5667 210.18 42.9 210.713 41.7 211.78C40.4333 212.846 39.8 214.38 39.8 216.38V220.78H64.4V216.38C64.4 214.38 63.8 212.846 62.6 211.78C61.3333 210.713 59.6333 210.18 57.5 210.18H46.7ZM4.8 190.355V176.255C4.8 173.055 5.53333 170.255 7 167.855C8.4 165.388 10.3333 163.488 12.8 162.155C15.2667 160.821 18 160.155 21 160.155H32.9C35.9 160.155 38.6333 160.821 41.1 162.155C43.5667 163.488 45.5333 165.388 47 167.855C48.4 170.255 49.1 173.055 49.1 176.255V180.155H74V190.355H4.8ZM39.5 176.555C39.5 174.555 38.9 173.021 37.7 171.955C36.4333 170.888 34.7333 170.355 32.6 170.355H21.3C19.1667 170.355 17.5 170.888 16.3 171.955C15.0333 173.021 14.4 174.555 14.4 176.555V180.155H39.5V176.555ZM4.8 144.75V135.75L74 121.35V132.05L58.5 134.75V145.75L74 148.45V159.15L4.8 144.75ZM48.9 136.35L26.3 140.25L48.9 144.15V136.35ZM41.9 102.362V104.862H74V115.062H4.8L4.8 104.862H32.3V102.262L4.8 94.3617V83.4617L37 93.8617L74 81.3617V92.6617L41.9 102.362ZM22.8 77.3086C19.2 77.3086 15.9667 76.6086 13.1 75.2086C10.2333 73.7419 8 71.7086 6.39999 69.1086C4.79999 66.5086 4 63.5419 4 60.2086C4 56.8753 4.79999 53.9086 6.39999 51.3086C8 48.7086 10.2333 46.7086 13.1 45.3086C15.9667 43.8419 19.2 43.1086 22.8 43.1086H56C59.6 43.1086 62.8333 43.8419 65.7 45.3086C68.5667 46.7086 70.8 48.7086 72.4 51.3086C74 53.9086 74.8 56.8753 74.8 60.2086C74.8 63.5419 74 66.5086 72.4 69.1086C70.8 71.7086 68.5667 73.7419 65.7 75.2086C62.8333 76.6086 59.6 77.3086 56 77.3086H22.8ZM55.7 67.1086C58.6333 67.1086 60.9667 66.5086 62.7 65.3086C64.3667 64.0419 65.2 62.3419 65.2 60.2086C65.2 58.0753 64.3667 56.4086 62.7 55.2086C60.9667 53.9419 58.6333 53.3086 55.7 53.3086H23.1C20.1667 53.3086 17.8667 53.9419 16.2 55.2086C14.4667 56.4086 13.6 58.0753 13.6 60.2086C13.6 62.3419 14.4667 64.0419 16.2 65.3086C17.8667 66.5086 20.1667 67.1086 23.1 67.1086H55.7ZM4.8 32.4445V22.2445H33.1L33.1 10.2445H4.8V0.0445305H74V10.2445H42.7L42.7 22.2445H74V32.4445H4.8Z" fill="#464646" fill-opacity="0.1" shape-rendering="crispEdges"/>
</g>
<defs>
<filter id="filter0_bd_98_210" x="-46" y="-49.9556" width="170.8" height="521.755" filterUnits="userSpaceOnUse" color-interpolation-filters="sRGB">
<feFlood flood-opacity="0" result="BackgroundImageFix"/>
<feGaussianBlur in="BackgroundImageFix" stdDeviation="25"/>
<feComposite in2="SourceAlpha" operator="in" result="effect1_backgroundBlur_98_210"/>
<feColorMatrix in="SourceAlpha" type="matrix" values="0 0 0 0 0 0 0 0 0 0 0 0 0 0 0 0 0 0 127 0" result="hardAlpha"/>
<feOffset dy="4"/>
<feGaussianBlur stdDeviation="2"/>
<feComposite in2="hardAlpha" operator="out"/>
<feColorMatrix type="matrix" values="0 0 0 0 0 0 0 0 0 0 0 0 0 0 0 0 0 0 0.25 0"/>
<feBlend mode="normal" in2="effect1_backgroundBlur_98_210" result="effect2_dropShadow_98_210"/>
<feBlend mode="normal" in="SourceGraphic" in2="effect2_dropShadow_98_210" result="shape"/>
</filter>
</defs>
</svg>
