<svg width="79" height="472" viewBox="0 0 79 472" fill="none" xmlns="http://www.w3.org/2000/svg">
<g filter="url(#filter0_d_98_207)">
<path d="M4.8 463.7L4.8 430.5H14.4V442H74V452.2H14.4V463.7H4.8ZM4.8 422.96V408.86C4.8 405.66 5.53333 402.86 7 400.46C8.4 397.993 10.3333 396.093 12.8 394.76C15.2667 393.427 18 392.76 21 392.76H32.9C35.9 392.76 38.6333 393.427 41.1 394.76C43.5667 396.093 45.5333 397.993 47 400.46C48.4 402.86 49.1 405.66 49.1 408.86V412.76H74V422.96H4.8ZM39.5 409.16C39.5 407.16 38.9 405.627 37.7 404.56C36.4333 403.493 34.7333 402.96 32.6 402.96H21.3C19.1667 402.96 17.5 403.493 16.3 404.56C15.0333 405.627 14.4 407.16 14.4 409.16V412.76H39.5V409.16ZM4.8 349.121H74V359.321H33.7L74 373.821V382.921H4.8L4.8 372.721H45.3L4.8 358.221V349.121ZM74 314.63L49.9 323.03L74 331.13V342.43L37.5 328.03L4.8 340.73V329.53L24.8 322.83L4.8 316.13V304.93L37.5 317.93L74 303.43V314.63ZM22.8 300.051C19.2 300.051 15.9667 299.351 13.1 297.951C10.2333 296.484 8 294.451 6.39999 291.851C4.79999 289.251 4 286.284 4 282.951C4 279.617 4.79999 276.651 6.39999 274.051C8 271.451 10.2333 269.451 13.1 268.051C15.9667 266.584 19.2 265.851 22.8 265.851H56C59.6 265.851 62.8333 266.584 65.7 268.051C68.5667 269.451 70.8 271.451 72.4 274.051C74 276.651 74.8 279.617 74.8 282.951C74.8 286.284 74 289.251 72.4 291.851C70.8 294.451 68.5667 296.484 65.7 297.951C62.8333 299.351 59.6 300.051 56 300.051H22.8ZM55.7 289.851C58.6333 289.851 60.9667 289.251 62.7 288.051C64.3667 286.784 65.2 285.084 65.2 282.951C65.2 280.817 64.3667 279.151 62.7 277.951C60.9667 276.684 58.6333 276.051 55.7 276.051H23.1C20.1667 276.051 17.8667 276.684 16.2 277.951C14.4667 279.151 13.6 280.817 13.6 282.951C13.6 285.084 14.4667 286.784 16.2 288.051C17.8667 289.251 20.1667 289.851 23.1 289.851H55.7ZM4.8 255.187V228.387H14.4V244.987H74V255.187H4.8ZM4.8 221.105V207.005C4.8 203.805 5.53333 201.005 7 198.605C8.4 196.138 10.3333 194.238 12.8 192.905C15.2667 191.571 18 190.905 21 190.905H32.9C35.9 190.905 38.6333 191.571 41.1 192.905C43.5667 194.238 45.5333 196.138 47 198.605C48.4 201.005 49.1 203.805 49.1 207.005V210.905H74V221.105H4.8ZM39.5 207.305C39.5 205.305 38.9 203.771 37.7 202.705C36.4333 201.638 34.7333 201.105 32.6 201.105H21.3C19.1667 201.105 17.5 201.638 16.3 202.705C15.0333 203.771 14.4 205.305 14.4 207.305V210.905H39.5V207.305ZM4.8 175.5V166.5L74 152.1V162.8L58.5 165.5V176.5L74 179.2V189.9L4.8 175.5ZM48.9 167.1L26.3 171L48.9 174.9V167.1ZM4.8 101.412H74V111.612H34.5L63.6 121.412V125.812L34.5 135.612H74V145.812H4.8V136.712L44.5 123.612L4.8 110.512V101.412ZM4.8 44.5758H74V54.7758H34.5L63.6 64.5758V68.9758L34.5 78.7758H74V88.9758H4.8L4.8 79.8758L44.5 66.7758L4.8 53.6758V44.5758ZM4.8 23.8398V14.8398L74 0.439843V11.1398L58.5 13.8398V24.8398L74 27.5398V38.2398L4.8 23.8398ZM48.9 15.4398L26.3 19.3398L48.9 23.2398V15.4398Z" fill="#464646" fill-opacity="0.15" shape-rendering="crispEdges"/>
</g>
<defs>
<filter id="filter0_d_98_207" x="0" y="0.439819" width="78.8" height="471.26" filterUnits="userSpaceOnUse" color-interpolation-filters="sRGB">
<feFlood flood-opacity="0" result="BackgroundImageFix"/>
<feColorMatrix in="SourceAlpha" type="matrix" values="0 0 0 0 0 0 0 0 0 0 0 0 0 0 0 0 0 0 127 0" result="hardAlpha"/>
<feOffset dy="4"/>
<feGaussianBlur stdDeviation="2"/>
<feComposite in2="hardAlpha" operator="out"/>
<feColorMatrix type="matrix" values="0 0 0 0 0 0 0 0 0 0 0 0 0 0 0 0 0 0 0.25 0"/>
<feBlend mode="normal" in2="BackgroundImageFix" result="effect1_dropShadow_98_207"/>
<feBlend mode="normal" in="SourceGraphic" in2="effect1_dropShadow_98_207" result="shape"/>
</filter>
</defs>
</svg>
