<svg width="79" height="428" viewBox="0 0 79 428" fill="none" xmlns="http://www.w3.org/2000/svg">
<g filter="url(#filter0_bd_98_209)">
<path d="M41.5 24C39.6333 29.1333 35.7 31.7 29.7 31.7H20.4C17.4 31.7 14.6667 31.0333 12.2 29.7C9.73333 28.3667 7.76667 26.5 6.3 24.1C4.9 21.7 4.2 18.9333 4.2 15.8C4.2 10.8667 5.9 7 9.3 4.2C12.7667 1.4 17.3333 1.19209e-07 23 1.19209e-07H28.1V10.2L23.3 10.2C16.9667 10.2 13.8 12.0667 13.8 15.8C13.8 17.5333 14.4333 18.9 15.7 19.9C16.9667 20.9667 18.6333 21.5 20.7 21.5H29.4C31.5333 21.5 33.2 20.9667 34.4 19.9C35.6667 18.8333 36.3 17.3 36.3 15.3V8.9H45.9V14.5C45.9 16.5 46.5 18.0333 47.7 19.1C48.9667 20.1667 50.6667 20.7 52.8 20.7H58.5C60.6333 20.7 62.3 20.2333 63.5 19.3C64.7667 18.4333 65.4 17.2 65.4 15.6C65.4 13.8667 64.6333 12.5667 63.1 11.7C61.5667 10.9 59.1667 10.5 55.9 10.5L52.1 10.5V0.3H56.2C61.8 0.3 66.3333 1.63333 69.8 4.3C73.2667 7.03333 75 10.8 75 15.6C75 18.6 74.2667 21.2667 72.8 23.6C71.4 25.9333 69.4667 27.7333 67 29C64.5333 30.2667 61.8 30.9 58.8 30.9H52.5C49.7667 30.9 47.4667 30.3 45.6 29.1C43.7333 27.9 42.3667 26.2 41.5 24ZM5 72.1V61.9H64.6V54.4C56.2 54 47.8667 53.4667 39.6 52.8C31.3333 52.1333 25 51.5 20.6 50.9C15.3333 50.1 11.4 48.3333 8.8 45.6C6.26667 42.8667 5 39.4 5 35.2H14.6C14.6 38.6 17.2 40.7 22.4 41.5C28.2667 42.3667 36.2667 43.1667 46.4 43.9C56.5333 44.6333 65.8 45.0333 74.2 45.1V72.1H5ZM74.2 92.8477V101.848L5 116.248L5 105.548L20.5 102.848V91.8477L5 89.1477V78.4477L74.2 92.8477ZM30.1 101.248L52.7 97.3477L30.1 93.4477V101.248ZM74.2 114.609L74.2 147.809H64.6V136.309H5V126.109H64.6V114.609H74.2ZM56.2 152.379C59.8 152.379 63.0333 153.079 65.9 154.479C68.7667 155.946 71 157.979 72.6 160.579C74.2 163.179 75 166.146 75 169.479C75 172.812 74.2 175.779 72.6 178.379C71 180.979 68.7667 182.979 65.9 184.379C63.0333 185.846 59.8 186.579 56.2 186.579H23C19.4 186.579 16.1667 185.846 13.3 184.379C10.4333 182.979 8.2 180.979 6.6 178.379C5 175.779 4.2 172.812 4.2 169.479C4.2 166.146 5 163.179 6.6 160.579C8.2 157.979 10.4333 155.946 13.3 154.479C16.1667 153.079 19.4 152.379 23 152.379H56.2ZM23.3 162.579C20.3667 162.579 18.0333 163.179 16.3 164.379C14.6333 165.646 13.8 167.346 13.8 169.479C13.8 171.612 14.6333 173.279 16.3 174.479C18.0333 175.746 20.3667 176.379 23.3 176.379H55.9C58.8333 176.379 61.1333 175.746 62.8 174.479C64.5333 173.279 65.4 171.612 65.4 169.479C65.4 167.346 64.5333 165.646 62.8 164.379C61.1333 163.179 58.8333 162.579 55.9 162.579H23.3ZM74.2 197.243V224.043H64.6V207.443H5V197.243H74.2ZM5 259.112V248.912H64.6V241.412C56.2 241.012 47.8667 240.478 39.6 239.812C31.3333 239.145 25 238.512 20.6 237.912C15.3333 237.112 11.4 235.345 8.8 232.612C6.26667 229.878 5 226.412 5 222.212H14.6C14.6 225.612 17.2 227.712 22.4 228.512C28.2667 229.378 36.2667 230.178 46.4 230.912C56.5333 231.645 65.8 232.045 74.2 232.112V259.112H5ZM74.2 279.859V288.859L5 303.259V292.559L20.5 289.859V278.859L5 276.159V265.459L74.2 279.859ZM30.1 288.259L52.7 284.359L30.1 280.459V288.259ZM41.5 330.25C39.6333 335.383 35.7 337.95 29.7 337.95H20.4C17.4 337.95 14.6667 337.283 12.2 335.95C9.73333 334.617 7.76667 332.75 6.3 330.35C4.9 327.95 4.2 325.183 4.2 322.05C4.2 317.117 5.9 313.25 9.3 310.45C12.7667 307.65 17.3333 306.25 23 306.25H28.1V316.45H23.3C16.9667 316.45 13.8 318.317 13.8 322.05C13.8 323.783 14.4333 325.15 15.7 326.15C16.9667 327.217 18.6333 327.75 20.7 327.75H29.4C31.5333 327.75 33.2 327.217 34.4 326.15C35.6667 325.083 36.3 323.55 36.3 321.55V315.15H45.9V320.75C45.9 322.75 46.5 324.283 47.7 325.35C48.9667 326.417 50.6667 326.95 52.8 326.95H58.5C60.6333 326.95 62.3 326.483 63.5 325.55C64.7667 324.683 65.4 323.45 65.4 321.85C65.4 320.117 64.6333 318.817 63.1 317.95C61.5667 317.15 59.1667 316.75 55.9 316.75H52.1V306.55H56.2C61.8 306.55 66.3333 307.883 69.8 310.55C73.2667 313.283 75 317.05 75 321.85C75 324.85 74.2667 327.517 72.8 329.85C71.4 332.183 69.4667 333.983 67 335.25C64.5333 336.517 61.8 337.15 58.8 337.15H52.5C49.7667 337.15 47.4667 336.55 45.6 335.35C43.7333 334.15 42.3667 332.45 41.5 330.25ZM37.1 360.431V357.931H5V347.731H74.2V357.931H46.7V360.531L74.2 368.431V379.331L42 368.931L5 381.431V370.131L37.1 360.431ZM74.2 395.973V404.973L5 419.373V408.673L20.5 405.973V394.973L5 392.273V381.573L74.2 395.973ZM30.1 404.373L52.7 400.473L30.1 396.573V404.373Z" fill="#464646" fill-opacity="0.1" shape-rendering="crispEdges"/>
</g>
<defs>
<filter id="filter0_bd_98_209" x="-45.8" y="-50" width="170.8" height="519.373" filterUnits="userSpaceOnUse" color-interpolation-filters="sRGB">
<feFlood flood-opacity="0" result="BackgroundImageFix"/>
<feGaussianBlur in="BackgroundImageFix" stdDeviation="25"/>
<feComposite in2="SourceAlpha" operator="in" result="effect1_backgroundBlur_98_209"/>
<feColorMatrix in="SourceAlpha" type="matrix" values="0 0 0 0 0 0 0 0 0 0 0 0 0 0 0 0 0 0 127 0" result="hardAlpha"/>
<feOffset dy="4"/>
<feGaussianBlur stdDeviation="2"/>
<feComposite in2="hardAlpha" operator="out"/>
<feColorMatrix type="matrix" values="0 0 0 0 0 0 0 0 0 0 0 0 0 0 0 0 0 0 0.25 0"/>
<feBlend mode="normal" in2="effect1_backgroundBlur_98_209" result="effect2_dropShadow_98_209"/>
<feBlend mode="normal" in="SourceGraphic" in2="effect2_dropShadow_98_209" result="shape"/>
</filter>
</defs>
</svg>
