<svg width="79" height="454" viewBox="0 0 79 454" fill="none" xmlns="http://www.w3.org/2000/svg">
<g filter="url(#filter0_d_198_189)">
<path d="M41.9 433.1V435.6H74V445.8H4.8V435.6H32.3V433L4.8 425.1L4.8 414.2L37 424.6L74 412.1V423.4L41.9 433.1ZM4.8 397.559V388.559L74 374.159V384.859L58.5 387.559V398.559L74 401.259V411.959L4.8 397.559ZM48.9 389.159L26.3 393.059L48.9 396.959V389.159ZM4.8 367.87L4.8 353.77C4.8 350.57 5.53333 347.77 7 345.37C8.4 342.904 10.3333 341.004 12.8 339.67C15.2667 338.337 18 337.67 21 337.67H32.9C35.9 337.67 38.6333 338.337 41.1 339.67C43.5667 341.004 45.5333 342.904 47 345.37C48.4 347.77 49.1 350.57 49.1 353.77V357.67H74V367.87H4.8ZM39.5 354.07C39.5 352.07 38.9 350.537 37.7 349.47C36.4333 348.404 34.7333 347.87 32.6 347.87H21.3C19.1667 347.87 17.5 348.404 16.3 349.47C15.0333 350.537 14.4 352.07 14.4 354.07V357.67H39.5V354.07ZM4.8 333.22L4.8 300.02H14.4V311.52H74V321.72H14.4V333.22H4.8ZM4.8 287.207V278.207L74 263.807V274.507L58.5 277.207V288.207L74 290.907V301.607L4.8 287.207ZM48.9 278.807L26.3 282.707L48.9 286.607V278.807ZM4.8 244.335V230.235C4.8 227.035 5.53333 224.235 7 221.835C8.4 219.368 10.3333 217.468 12.8 216.135C15.2667 214.802 18 214.135 21 214.135H32.9C35.9 214.135 38.6333 214.802 41.1 216.135C43.5667 217.468 45.5333 219.368 47 221.835C48.4 224.235 49.1 227.035 49.1 230.235V234.135H74V244.335H4.8ZM39.5 230.535C39.5 228.535 38.9 227.002 37.7 225.935C36.4333 224.868 34.7333 224.335 32.6 224.335H21.3C19.1667 224.335 17.5 224.868 16.3 225.935C15.0333 227.002 14.4 228.535 14.4 230.535V234.135H39.5V230.535ZM22.8 205.996C19.2 205.996 15.9667 205.296 13.1 203.896C10.2333 202.429 8 200.396 6.39999 197.796C4.79999 195.196 4 192.229 4 188.896C4 185.563 4.79999 182.596 6.39999 179.996C8 177.396 10.2333 175.396 13.1 173.996C15.9667 172.529 19.2 171.796 22.8 171.796H56C59.6 171.796 62.8333 172.529 65.7 173.996C68.5667 175.396 70.8 177.396 72.4 179.996C74 182.596 74.8 185.563 74.8 188.896C74.8 192.229 74 195.196 72.4 197.796C70.8 200.396 68.5667 202.429 65.7 203.896C62.8333 205.296 59.6 205.996 56 205.996H22.8ZM55.7 195.796C58.6333 195.796 60.9667 195.196 62.7 193.996C64.3667 192.729 65.2 191.029 65.2 188.896C65.2 186.763 64.3667 185.096 62.7 183.896C60.9667 182.629 58.6333 181.996 55.7 181.996H23.1C20.1667 181.996 17.8667 182.629 16.2 183.896C14.4667 185.096 13.6 186.763 13.6 188.896C13.6 191.029 14.4667 192.729 16.2 193.996C17.8667 195.196 20.1667 195.796 23.1 195.796H55.7ZM23.1 140.532C20.1 140.532 17.7667 141.065 16.1 142.132C14.4333 143.132 13.6 144.565 13.6 146.432C13.6 148.365 14.4333 149.899 16.1 151.032C17.7667 152.099 20.1 152.632 23.1 152.632H55.7C58.7 152.632 61.0333 152.099 62.7 151.032C64.3667 149.899 65.2 148.365 65.2 146.432C65.2 144.499 64.3667 142.999 62.7 141.932C61.0333 140.799 58.7 140.232 55.7 140.232H50.9V130.032H56C61.5333 130.032 66.0667 131.565 69.6 134.632C73.0667 137.632 74.8 141.565 74.8 146.432C74.8 151.299 73.0667 155.265 69.6 158.332C66.0667 161.332 61.5333 162.832 56 162.832H22.8C17.2667 162.832 12.7667 161.332 9.3 158.332C5.76666 155.265 4 151.299 4 146.432C4 141.632 5.76666 137.765 9.3 134.832C12.7667 131.832 17.2667 130.332 22.8 130.332H26.9V140.532H23.1ZM23.1 100.395C20.1 100.395 17.7667 100.929 16.1 101.995C14.4333 102.995 13.6 104.429 13.6 106.295C13.6 108.229 14.4333 109.762 16.1 110.895C17.7667 111.962 20.1 112.495 23.1 112.495H55.7C58.7 112.495 61.0333 111.962 62.7 110.895C64.3667 109.762 65.2 108.229 65.2 106.295C65.2 104.362 64.3667 102.862 62.7 101.795C61.0333 100.662 58.7 100.095 55.7 100.095H50.9V89.8953H56C61.5333 89.8953 66.0667 91.4286 69.6 94.4953C73.0667 97.4953 74.8 101.429 74.8 106.295C74.8 111.162 73.0667 115.129 69.6 118.195C66.0667 121.195 61.5333 122.695 56 122.695H22.8C17.2667 122.695 12.7667 121.195 9.3 118.195C5.76666 115.129 4 111.162 4 106.295C4 101.495 5.76666 97.6286 9.3 94.6953C12.7667 91.6953 17.2667 90.1953 22.8 90.1953H26.9V100.395H23.1ZM4.8 47.0586H74V57.2586H33.7L74 71.7586V80.8586H4.8L4.8 70.6586H45.3L4.8 56.1586V47.0586ZM4.8 0.867187H74V11.0672H33.7L74 25.5672V34.6672H4.8V24.4672H45.3L4.8 9.96719V0.867187Z" fill="#464646" fill-opacity="0.15" shape-rendering="crispEdges"/>
</g>
<defs>
<filter id="filter0_d_198_189" x="0" y="0.867188" width="78.7998" height="452.933" filterUnits="userSpaceOnUse" color-interpolation-filters="sRGB">
<feFlood flood-opacity="0" result="BackgroundImageFix"/>
<feColorMatrix in="SourceAlpha" type="matrix" values="0 0 0 0 0 0 0 0 0 0 0 0 0 0 0 0 0 0 127 0" result="hardAlpha"/>
<feOffset dy="4"/>
<feGaussianBlur stdDeviation="2"/>
<feComposite in2="hardAlpha" operator="out"/>
<feColorMatrix type="matrix" values="0 0 0 0 0 0 0 0 0 0 0 0 0 0 0 0 0 0 0.25 0"/>
<feBlend mode="normal" in2="BackgroundImageFix" result="effect1_dropShadow_198_189"/>
<feBlend mode="normal" in="SourceGraphic" in2="effect1_dropShadow_198_189" result="shape"/>
</filter>
</defs>
</svg>
