<svg width="79" height="328" viewBox="0 0 79 328" fill="none" xmlns="http://www.w3.org/2000/svg">
<g filter="url(#filter0_d_101_370)">
<path d="M41.9 307.1V309.6H74V319.8H4.8V309.6H32.3V307L4.8 299.1L4.8 288.2L37 298.6L74 286.1V297.4L41.9 307.1ZM22.8 282.047C19.2 282.047 15.9667 281.347 13.1 279.947C10.2333 278.48 8 276.447 6.39999 273.847C4.79999 271.247 4 268.28 4 264.947C4 261.614 4.79999 258.647 6.39999 256.047C8 253.447 10.2333 251.447 13.1 250.047C15.9667 248.58 19.2 247.847 22.8 247.847H56C59.6 247.847 62.8333 248.58 65.7 250.047C68.5667 251.447 70.8 253.447 72.4 256.047C74 258.647 74.8 261.614 74.8 264.947C74.8 268.28 74 271.247 72.4 273.847C70.8 276.447 68.5667 278.48 65.7 279.947C62.8333 281.347 59.6 282.047 56 282.047H22.8ZM55.7 271.847C58.6333 271.847 60.9667 271.247 62.7 270.047C64.3667 268.78 65.2 267.08 65.2 264.947C65.2 262.814 64.3667 261.147 62.7 259.947C60.9667 258.68 58.6333 258.047 55.7 258.047H23.1C20.1667 258.047 17.8667 258.68 16.2 259.947C14.4667 261.147 13.6 262.814 13.6 264.947C13.6 267.08 14.4667 268.78 16.2 270.047C17.8667 271.247 20.1667 271.847 23.1 271.847H55.7ZM4.8 237.183V226.983H33.1V214.983H4.8V204.783H74L74 214.983H42.7V226.983H74V237.183H4.8ZM4.8 197.259L4.8 164.059H14.4V175.559H74V185.759H14.4V197.259H4.8ZM4.8 151.246V142.246L74 127.846V138.546L58.5 141.246V152.246L74 154.946V165.646L4.8 151.246ZM48.9 142.846L26.3 146.746L48.9 150.646V142.846ZM41.9 108.858V111.358H74V121.558H4.8V111.358H32.3V108.758L4.8 100.858V89.9578L37 100.358L74 87.8578V99.1578L41.9 108.858ZM4.8 86.5164L4.8 53.3164H14.4V64.8164H74V75.0164H14.4V86.5164H4.8ZM29.6 31.2766C29.6 28.0766 30.3333 25.2766 31.8 22.8766C33.2 20.4099 35.1333 18.5099 37.6 17.1766C40.0667 15.8432 42.8 15.1766 45.8 15.1766H57.8C60.8 15.1766 63.5333 15.8432 66 17.1766C68.4667 18.5099 70.4333 20.4099 71.9 22.8766C73.3 25.2766 74 28.0766 74 31.2766V45.7766H4.8V35.5766H29.6V31.2766ZM4.8 0.276561H74V10.4766H4.8L4.8 0.276561ZM46.1 25.3766C43.9667 25.3766 42.3 25.9099 41.1 26.9766C39.8333 28.0432 39.2 29.5766 39.2 31.5766V35.5766H64.4V31.5766C64.4 29.5766 63.8 28.0432 62.6 26.9766C61.3333 25.9099 59.6333 25.3766 57.5 25.3766H46.1Z" fill="#464646" fill-opacity="0.15" shape-rendering="crispEdges"/>
</g>
<defs>
<filter id="filter0_d_101_370" x="0" y="0.27655" width="78.8008" height="327.523" filterUnits="userSpaceOnUse" color-interpolation-filters="sRGB">
<feFlood flood-opacity="0" result="BackgroundImageFix"/>
<feColorMatrix in="SourceAlpha" type="matrix" values="0 0 0 0 0 0 0 0 0 0 0 0 0 0 0 0 0 0 127 0" result="hardAlpha"/>
<feOffset dy="4"/>
<feGaussianBlur stdDeviation="2"/>
<feComposite in2="hardAlpha" operator="out"/>
<feColorMatrix type="matrix" values="0 0 0 0 0 0 0 0 0 0 0 0 0 0 0 0 0 0 0.25 0"/>
<feBlend mode="normal" in2="BackgroundImageFix" result="effect1_dropShadow_101_370"/>
<feBlend mode="normal" in="SourceGraphic" in2="effect1_dropShadow_101_370" result="shape"/>
</filter>
</defs>
</svg>
