<svg width="79" height="328" viewBox="0 0 79 328" fill="none" xmlns="http://www.w3.org/2000/svg">
<g filter="url(#filter0_d_271_1413)">
<path d="M37.1 12.9V10.4L5 10.4V0.2L74.2 0.2V10.4L46.7 10.4V13L74.2 20.9V31.8L42 21.4L5 33.9V22.6L37.1 12.9ZM56.2 37.9531C59.8 37.9531 63.0333 38.6531 65.9 40.0531C68.7667 41.5198 71 43.5531 72.6 46.1531C74.2 48.7531 75 51.7198 75 55.0531C75 58.3865 74.2 61.3531 72.6 63.9531C71 66.5531 68.7667 68.5531 65.9 69.9531C63.0333 71.4198 59.8 72.1531 56.2 72.1531H23C19.4 72.1531 16.1667 71.4198 13.3 69.9531C10.4333 68.5531 8.2 66.5531 6.6 63.9531C5 61.3531 4.2 58.3865 4.2 55.0531C4.2 51.7198 5 48.7531 6.6 46.1531C8.2 43.5531 10.4333 41.5198 13.3 40.0531C16.1667 38.6531 19.4 37.9531 23 37.9531L56.2 37.9531ZM23.3 48.1531C20.3667 48.1531 18.0333 48.7531 16.3 49.9531C14.6333 51.2198 13.8 52.9198 13.8 55.0531C13.8 57.1865 14.6333 58.8531 16.3 60.0531C18.0333 61.3198 20.3667 61.9531 23.3 61.9531H55.9C58.8333 61.9531 61.1333 61.3198 62.8 60.0531C64.5333 58.8531 65.4 57.1865 65.4 55.0531C65.4 52.9198 64.5333 51.2198 62.8 49.9531C61.1333 48.7531 58.8333 48.1531 55.9 48.1531L23.3 48.1531ZM74.2 82.8172V93.0172H45.9V105.017H74.2V115.217H5L5 105.017H36.3V93.0172H5V82.8172H74.2ZM74.2 122.741L74.2 155.941H64.6V144.441H5V134.241H64.6V122.741H74.2ZM74.2 168.754V177.754L5 192.154V181.454L20.5 178.754V167.754L5 165.054V154.354L74.2 168.754ZM30.1 177.154L52.7 173.254L30.1 169.354V177.154ZM37.1 211.142V208.642H5V198.442H74.2V208.642H46.7V211.242L74.2 219.142V230.042L42 219.642L5 232.142V220.842L37.1 211.142ZM74.2 233.484V266.684H64.6V255.184H5V244.984H64.6V233.484H74.2ZM49.4 288.723C49.4 291.923 48.6667 294.723 47.2 297.123C45.8 299.59 43.8667 301.49 41.4 302.823C38.9333 304.157 36.2 304.823 33.2 304.823H21.2C18.2 304.823 15.4667 304.157 13 302.823C10.5333 301.49 8.56667 299.59 7.1 297.123C5.7 294.723 5 291.923 5 288.723V274.223H74.2V284.423H49.4V288.723ZM74.2 319.723H5V309.523H74.2L74.2 319.723ZM32.9 294.623C35.0333 294.623 36.7 294.09 37.9 293.023C39.1667 291.957 39.8 290.423 39.8 288.423V284.423H14.6V288.423C14.6 290.423 15.2 291.957 16.4 293.023C17.6667 294.09 19.3667 294.623 21.5 294.623H32.9Z" fill="#464646" fill-opacity="0.15" shape-rendering="crispEdges"/>
</g>
<defs>
<filter id="filter0_d_271_1413" x="0.199219" y="0.200012" width="78.8008" height="327.523" filterUnits="userSpaceOnUse" color-interpolation-filters="sRGB">
<feFlood flood-opacity="0" result="BackgroundImageFix"/>
<feColorMatrix in="SourceAlpha" type="matrix" values="0 0 0 0 0 0 0 0 0 0 0 0 0 0 0 0 0 0 127 0" result="hardAlpha"/>
<feOffset dy="4"/>
<feGaussianBlur stdDeviation="2"/>
<feComposite in2="hardAlpha" operator="out"/>
<feColorMatrix type="matrix" values="0 0 0 0 0 0 0 0 0 0 0 0 0 0 0 0 0 0 0.25 0"/>
<feBlend mode="normal" in2="BackgroundImageFix" result="effect1_dropShadow_271_1413"/>
<feBlend mode="normal" in="SourceGraphic" in2="effect1_dropShadow_271_1413" result="shape"/>
</filter>
</defs>
</svg>
