<svg width="78" height="389" viewBox="0 0 78 389" fill="none" xmlns="http://www.w3.org/2000/svg">
<g filter="url(#filter0_bd_177_46)">
<path d="M73.2 44.6L4 44.6V34.4L43.5 34.4L14.4 24.6V20.2L43.5 10.4L4 10.4V0.2L73.2 0.2V9.3L33.5 22.4L73.2 35.5V44.6ZM73.2 65.3359V74.3359L4 88.7359V78.0359L19.5 75.3359V64.3359L4 61.6359V50.9359L73.2 65.3359ZM29.1 73.7359L51.7 69.8359L29.1 65.9359V73.7359ZM73.2 87.0969V120.297H63.6V108.797H4V98.5969H63.6V87.0969H73.2ZM73.2 127.837L73.2 156.037H63.6V138.037H44.9V152.037H35.3V138.037H13.6V156.537H4V127.837H73.2ZM73.2 166.509V180.609C73.2 183.809 72.4667 186.609 71 189.009C69.6 191.475 67.6667 193.375 65.2 194.709C62.7333 196.042 60 196.709 57 196.709H45.1C42.1 196.709 39.3667 196.042 36.9 194.709C34.4333 193.375 32.4667 191.475 31 189.009C29.6 186.609 28.9 183.809 28.9 180.609V176.709H4V166.509H73.2ZM38.5 180.309C38.5 182.309 39.1 183.842 40.3 184.909C41.5667 185.975 43.2667 186.509 45.4 186.509H56.7C58.8333 186.509 60.5 185.975 61.7 184.909C62.9667 183.842 63.6 182.309 63.6 180.309V176.709H38.5V180.309ZM73.2 240.348H4V230.148H44.3L4 215.648V206.548H73.2V216.748H32.7L73.2 231.248V240.348ZM73.2 261.039V270.039L4 284.439V273.739L19.5 271.039V260.039L4 257.339V246.639L73.2 261.039ZM29.1 269.439L51.7 265.539L29.1 261.639V269.439ZM4 322.127V311.927H63.6V304.427C55.2 304.027 46.8667 303.494 38.6 302.827C30.3333 302.161 24 301.527 19.6 300.927C14.3333 300.127 10.4 298.361 7.8 295.627C5.26667 292.894 4 289.427 4 285.227H13.6C13.6 288.627 16.2 290.727 21.4 291.527C27.2667 292.394 35.2667 293.194 45.4 293.927C55.5333 294.661 64.8 295.061 73.2 295.127L73.2 322.127H4ZM48.4 349.075C48.4 352.275 47.6667 355.075 46.2 357.475C44.8 359.942 42.8667 361.842 40.4 363.175C37.9333 364.508 35.2 365.175 32.2 365.175H20.2C17.2 365.175 14.4667 364.508 12 363.175C9.53333 361.842 7.56667 359.942 6.1 357.475C4.7 355.075 4 352.275 4 349.075L4 334.575H73.2V344.775H48.4V349.075ZM73.2 380.075H4V369.875H73.2V380.075ZM31.9 354.975C34.0333 354.975 35.7 354.442 36.9 353.375C38.1667 352.308 38.8 350.775 38.8 348.775V344.775H13.6V348.775C13.6 350.775 14.2 352.308 15.4 353.375C16.6667 354.442 18.3667 354.975 20.5 354.975H31.9Z" fill="#464646" fill-opacity="0.1" shape-rendering="crispEdges"/>
</g>
<defs>
<filter id="filter0_bd_177_46" x="-46" y="-49.8" width="169.2" height="479.875" filterUnits="userSpaceOnUse" color-interpolation-filters="sRGB">
<feFlood flood-opacity="0" result="BackgroundImageFix"/>
<feGaussianBlur in="BackgroundImageFix" stdDeviation="25"/>
<feComposite in2="SourceAlpha" operator="in" result="effect1_backgroundBlur_177_46"/>
<feColorMatrix in="SourceAlpha" type="matrix" values="0 0 0 0 0 0 0 0 0 0 0 0 0 0 0 0 0 0 127 0" result="hardAlpha"/>
<feOffset dy="4"/>
<feGaussianBlur stdDeviation="2"/>
<feComposite in2="hardAlpha" operator="out"/>
<feColorMatrix type="matrix" values="0 0 0 0 0 0 0 0 0 0 0 0 0 0 0 0 0 0 0.25 0"/>
<feBlend mode="normal" in2="effect1_backgroundBlur_177_46" result="effect2_dropShadow_177_46"/>
<feBlend mode="normal" in="SourceGraphic" in2="effect2_dropShadow_177_46" result="shape"/>
</filter>
</defs>
</svg>
